<svg width="1728" height="5887" viewBox="0 0 1728 5887" fill="none" xmlns="http://www.w3.org/2000/svg">
<g clip-path="url(#clip0_2008_1273)">
<rect width="1728" height="5887" fill="black"/>
<g opacity="0.2" filter="url(#filter0_f_2008_1273)">
<circle cx="1303" cy="999" r="223" fill="#FC4FF6"/>
</g>
<g opacity="0.2" filter="url(#filter1_f_2008_1273)">
<ellipse cx="404" cy="966" rx="232" ry="231" fill="#8593E8"/>
</g>
<g opacity="0.2" filter="url(#filter2_f_2008_1273)">
<circle cx="839.5" cy="878.5" r="233.5" fill="#5D6EF3"/>
</g>
<path opacity="0.0144928" d="M2179.7 5297.9C2188.76 5302.75 2199.99 5300.91 2207.15 5293.42L2490.26 4997.34C2494.45 4992.96 2496.77 4987.11 2496.72 4981.06L2491.68 4398.53C2491.64 4393.79 2490.14 4389.2 2487.39 4385.37L2191.03 3972.43C2185.99 3965.41 2177.42 3961.87 2168.86 3963.27L1817.98 4020.6C1809.42 4022 1802.33 4028.11 1799.64 4036.39L1641.37 4523.62C1639.91 4528.13 1639.86 4532.98 1641.24 4537.5L1810.8 5093.15C1812.56 5098.92 1816.52 5103.74 1821.82 5106.57L2179.7 5297.9Z" stroke="url(#paint0_linear_2008_1273)" stroke-width="4"/>
<path opacity="0.0289855" d="M2116.82 5296.42C2125.61 5301.71 2136.89 5300.48 2144.43 5293.39L2440.69 5015.09C2445.11 5010.93 2447.74 5005.21 2448 4999.16L2473.16 4422.25C2473.37 4417.51 2472.11 4412.83 2469.55 4408.86L2196.83 3984.67C2192.16 3977.41 2183.79 3973.43 2175.17 3974.37L1824.03 4012.84C1815.42 4013.79 1808.02 4019.5 1804.9 4027.61L1622.62 4501.65C1620.91 4506.09 1620.61 4510.94 1621.75 4515.53L1761.27 5074.41C1762.73 5080.27 1766.44 5085.29 1771.6 5088.4L2116.82 5296.42Z" stroke="url(#paint1_linear_2008_1273)" stroke-width="4"/>
<path opacity="0.0434783" d="M2054.43 5293C2062.92 5298.73 2074.22 5298.1 2082.11 5291.44L2390.46 5031.49C2395.1 5027.57 2398.03 5022 2398.61 5015.97L2453.34 4446.26C2453.8 4441.53 2452.78 4436.78 2450.42 4432.67L2201.67 3998.59C2197.38 3991.1 2189.23 3986.69 2180.59 3987.18L1830.16 4006.91C1821.52 4007.39 1813.84 4012.7 1810.3 4020.62L1604.95 4480.27C1603 4484.62 1602.45 4489.46 1603.36 4494.11L1712.98 5054.57C1714.14 5060.5 1717.59 5065.72 1722.59 5069.09L2054.43 5293Z" stroke="url(#paint2_linear_2008_1273)" stroke-width="4"/>
<path opacity="0.057971" d="M1992.62 5287.7C2000.79 5293.85 2012.09 5293.81 2020.3 5287.61L2339.64 5046.52C2344.49 5042.86 2347.71 5037.44 2348.61 5031.45L2432.22 4470.5C2432.93 4465.78 2432.15 4460.98 2430 4456.74L2205.48 4014.12C2201.58 4006.43 2193.67 4001.61 2185.03 4001.64L1836.28 4002.79C1827.63 4002.81 1819.7 4007.69 1815.75 4015.41L1588.33 4459.52C1586.16 4463.77 1585.35 4468.58 1586.02 4473.29L1665.98 5033.7C1666.83 5039.69 1670.02 5045.09 1674.85 5048.72L1992.62 5287.7Z" stroke="url(#paint3_linear_2008_1273)" stroke-width="4"/>
<path opacity="0.0724638" d="M1931.49 5280.56C1939.33 5287.11 1950.58 5287.67 1959.09 5281.93L2288.32 5060.17C2293.36 5056.78 2296.87 5051.53 2298.08 5045.58L2409.8 4494.88C2410.75 4490.2 2410.22 4485.35 2408.29 4480.99L2208.17 4031.2C2204.67 4023.32 2197.03 4018.1 2188.41 4017.67L1842.29 4000.46C1833.67 4000.03 1825.5 4004.47 1821.15 4011.96L1572.73 4439.45C1570.32 4443.59 1569.26 4448.36 1569.69 4453.12L1620.32 5011.89C1620.87 5017.92 1623.78 5023.49 1628.42 5027.37L1931.49 5280.56Z" stroke="url(#paint4_linear_2008_1273)" stroke-width="4"/>
<path opacity="0.0869565" d="M1871.14 5271.64C1878.62 5278.56 1889.79 5279.71 1898.58 5274.46L2236.57 5072.43C2241.79 5069.3 2245.58 5064.25 2247.09 5058.36L2386.08 4519.34C2387.27 4514.7 2386.99 4509.81 2385.27 4505.35L2209.68 4049.74C2206.58 4041.7 2199.23 4036.09 2190.65 4035.2L1848.1 3999.91C1839.52 3999.02 1831.15 4003.01 1826.41 4010.24L1558.09 4420.12C1555.46 4424.13 1554.15 4428.86 1554.34 4433.64L1576.04 4989.21C1576.28 4995.28 1578.91 5001 1583.35 5005.12L1871.14 5271.64Z" stroke="url(#paint5_linear_2008_1273)" stroke-width="4"/>
<path opacity="0.101449" d="M1811.66 5260.99C1818.76 5268.27 1829.82 5270.01 1838.85 5265.26L2184.47 5083.27C2189.86 5080.43 2193.91 5075.58 2195.73 5069.77L2361.05 4543.81C2362.49 4539.22 2362.46 4534.31 2360.96 4529.75L2209.93 4069.66C2207.24 4061.48 2200.2 4055.5 2191.69 4054.17L1853.62 4001.1C1845.1 3999.76 1836.55 4003.29 1831.44 4010.25L1544.37 4401.57C1541.53 4405.44 1539.97 4410.11 1539.91 4414.91L1533.18 4965.76C1533.1 4971.85 1535.44 4977.7 1539.68 4982.05L1811.66 5260.99Z" stroke="url(#paint6_linear_2008_1273)" stroke-width="4"/>
<path opacity="0.115942" d="M1753.12 5248.69C1759.83 5256.31 1770.75 5258.62 1779.99 5254.38L2132.09 5092.69C2137.63 5090.15 2141.94 5085.51 2144.06 5079.8L2334.74 4568.2C2336.42 4563.69 2336.64 4558.76 2335.37 4554.12L2208.85 4090.89C2206.59 4082.59 2199.87 4076.26 2191.45 4074.48L1858.74 4004C1850.33 4002.21 1841.61 4005.28 1836.15 4011.94L1531.53 4383.84L1529.98 4382.57L1531.53 4383.84C1528.47 4387.56 1526.66 4392.15 1526.36 4396.96L1491.76 4941.62C1491.38 4947.7 1493.42 4953.68 1497.44 4958.25L1753.12 5248.69Z" stroke="url(#paint7_linear_2008_1273)" stroke-width="4"/>
<path opacity="0.130435" d="M1695.61 5234.79C1701.91 5242.73 1712.66 5245.61 1722.08 5241.89L2079.52 5100.7C2085.19 5098.46 2089.74 5094.05 2092.17 5088.45L2307.14 4592.46C2309.06 4588.03 2309.54 4583.1 2308.5 4578.38L2206.4 4113.33C2204.55 4104.94 2198.18 4098.27 2189.88 4096.05L1863.4 4008.57C1855.1 4006.34 1846.25 4008.93 1840.46 4015.28L1519.51 4366.97C1516.25 4370.54 1514.2 4375.04 1513.64 4379.84L1451.82 4916.87C1451.12 4922.94 1452.86 4929.03 1456.66 4933.8L1695.61 5234.79Z" stroke="url(#paint8_linear_2008_1273)" stroke-width="4"/>
<path opacity="0.144928" d="M1639.21 5219.38C1645.08 5227.61 1655.62 5231.04 1665.2 5227.85L2026.82 5107.29C2032.61 5105.36 2037.4 5101.2 2040.12 5095.73L2278.29 4616.51C2280.45 4612.17 2281.18 4607.25 2280.38 4602.47L2202.51 4136.91C2201.09 4128.44 2195.08 4121.46 2186.92 4118.8L1867.5 4014.77C1859.34 4012.11 1850.38 4014.22 1844.27 4020.24L1508.26 4351C1504.8 4354.4 1502.51 4358.81 1501.71 4363.59L1413.37 4891.61C1412.36 4897.64 1413.8 4903.82 1417.35 4908.8L1639.21 5219.38Z" stroke="url(#paint9_linear_2008_1273)" stroke-width="4"/>
<path opacity="0.15942" d="M1583.99 5202.53C1589.42 5211.02 1599.72 5214.99 1609.42 5212.34L1974.08 5112.48C1979.97 5110.86 1984.98 5106.96 1987.99 5101.63L2248.2 4640.28C2250.59 4636.05 2251.57 4631.16 2251.01 4626.32L2197.13 4161.52C2196.15 4153 2190.52 4145.73 2182.52 4142.65L1870.95 4022.56C1862.96 4019.48 1853.93 4021.1 1847.52 4026.77L1497.73 4335.97C1494.09 4339.19 1491.56 4343.49 1490.51 4348.24L1376.44 4865.91C1375.12 4871.89 1376.24 4878.16 1379.54 4883.32L1583.99 5202.53Z" stroke="url(#paint10_linear_2008_1273)" stroke-width="4"/>
<path opacity="0.173913" d="M1530 5184.32C1534.99 5193.05 1545.03 5197.54 1554.81 5195.43L1921.36 5116.26C1927.35 5114.97 1932.56 5111.33 1935.85 5106.16L2216.89 4663.71C2219.5 4659.59 2220.74 4654.74 2220.42 4649.86L2190.23 4187.08C2189.68 4178.53 2184.44 4170.99 2176.63 4167.49L1873.69 4031.87C1865.89 4028.38 1856.8 4029.51 1850.11 4034.82L1487.87 4321.91C1484.05 4324.94 1481.29 4329.11 1479.99 4333.82L1341.02 4839.87C1339.4 4845.79 1340.2 4852.12 1343.25 4857.46L1530 5184.32Z" stroke="url(#paint11_linear_2008_1273)" stroke-width="4"/>
<path opacity="0.188406" d="M1477.32 5164.83C1481.85 5173.77 1491.59 5178.77 1501.44 5177.2L1868.75 5118.67C1874.8 5117.7 1880.21 5114.35 1883.77 5109.34L2184.39 4686.74C2187.23 4682.74 2188.72 4677.94 2188.65 4673.02L2181.77 4213.49C2181.64 4204.94 2176.81 4197.14 2169.21 4193.24L1875.64 4042.67C1868.04 4038.77 1858.94 4039.42 1851.98 4044.34L1478.61 4308.84C1474.62 4311.67 1471.64 4315.71 1470.1 4320.37L1307.14 4813.58C1305.21 4819.42 1305.69 4825.8 1308.47 4831.3L1477.32 5164.83Z" stroke="url(#paint12_linear_2008_1273)" stroke-width="4"/>
<path opacity="0.202899" d="M1426 5144.15C1430.05 5153.28 1439.48 5158.76 1449.36 5157.74L1816.31 5119.71C1822.41 5119.08 1828 5116.01 1831.83 5111.19L2150.73 4709.29C2153.79 4705.43 2155.53 4700.69 2155.7 4695.76L2171.71 4240.66C2172.01 4232.12 2167.59 4224.1 2160.23 4219.81L1876.73 4054.88C1869.36 4050.6 1860.26 4050.75 1853.07 4055.28L1469.91 4296.79C1465.76 4299.41 1462.56 4303.3 1460.77 4307.9L1274.78 4787.12C1272.55 4792.87 1272.71 4799.28 1275.22 4804.93L1426 5144.15Z" stroke="url(#paint13_linear_2008_1273)" stroke-width="4"/>
<path opacity="0.217391" d="M1376.08 5122.36C1379.67 5131.65 1388.75 5137.6 1398.62 5137.12L1764.1 5119.41C1770.24 5119.11 1776 5116.34 1780.08 5111.72L2115.94 4731.31C2119.21 4727.6 2121.21 4722.93 2121.63 4717.99L2160.03 4268.48C2160.76 4259.98 2156.77 4251.76 2149.65 4247.1L1876.88 4068.45C1869.77 4063.79 1860.69 4063.46 1853.29 4067.59L1461.71 4285.78C1457.4 4288.18 1453.98 4291.92 1451.96 4296.44L1243.95 4760.59C1241.43 4766.23 1241.26 4772.66 1243.48 4778.44L1376.08 5122.36Z" stroke="url(#paint14_linear_2008_1273)" stroke-width="4"/>
<path opacity="0.231884" d="M1327.63 5099.56C1330.73 5108.98 1339.44 5115.37 1349.28 5115.44L1712.21 5117.79C1718.37 5117.83 1724.28 5115.37 1728.6 5110.96L2080.07 4752.73C2083.55 4749.19 2085.79 4744.61 2086.46 4739.67L2146.71 4296.87C2147.86 4288.43 2144.3 4280.02 2137.46 4275L1876.05 4083.31C1869.21 4078.29 1860.19 4077.48 1852.59 4081.19L1453.94 4275.84C1449.49 4278.01 1445.87 4281.58 1443.6 4286.01L1214.64 4734.07C1211.82 4739.58 1211.33 4746.01 1213.27 4751.91L1327.63 5099.56Z" stroke="url(#paint15_linear_2008_1273)" stroke-width="4"/>
<path opacity="0.246377" d="M1280.66 5075.83C1283.28 5085.36 1291.6 5092.17 1301.38 5092.77L1660.7 5114.89C1666.85 5115.27 1672.89 5113.12 1677.45 5108.94L2043.15 4773.51C2046.82 4770.14 2049.31 4765.66 2050.23 4760.73L2131.73 4325.72C2133.3 4317.36 2130.18 4308.8 2123.63 4303.43L1874.17 4099.4C1867.61 4094.03 1858.68 4092.74 1850.91 4096.02L1446.55 4266.97C1441.98 4268.9 1438.15 4272.29 1435.65 4276.62L1186.83 4707.64C1183.73 4713.02 1182.9 4719.43 1184.55 4725.43L1280.66 5075.83Z" stroke="url(#paint16_linear_2008_1273)" stroke-width="4"/>
<path opacity="0.26087" d="M1235.23 5051.27C1237.36 5060.88 1245.27 5068.09 1254.95 5069.22L1609.62 5110.73C1615.76 5111.45 1621.92 5109.63 1626.7 5105.68L2005.23 4793.59C2009.09 4790.41 2011.82 4786.03 2012.99 4781.13L2115.08 4354.93C2117.06 4346.67 2114.4 4337.98 2108.15 4332.29L1871.19 4116.63C1864.93 4110.94 1856.1 4109.18 1848.19 4112.03L1439.48 4259.19C1434.79 4260.88 1430.77 4264.08 1428.04 4268.29L1160.5 4681.4C1157.12 4686.62 1155.97 4693 1157.32 4699.1L1235.23 5051.27Z" stroke="url(#paint17_linear_2008_1273)" stroke-width="4"/>
<path opacity="0.289855" d="M1149.06 5000.03C1150.21 5009.73 1157.25 5017.64 1166.65 5019.81L1509.02 5098.8C1515.07 5100.2 1521.41 5099.05 1526.61 5095.61L1926.54 4831.44C1930.76 4828.66 1933.95 4824.54 1935.63 4819.73L2076.78 4414.06C2079.56 4406.07 2077.81 4397.19 2072.22 4390.9L1861.71 4154.27C1856.12 4147.99 1847.58 4145.3 1839.44 4147.26L1426.06 4246.92C1421.17 4248.1 1416.79 4250.88 1413.61 4254.84L1112.21 4629.78C1108.3 4634.65 1106.5 4640.92 1107.24 4647.15L1149.06 5000.03Z" stroke="url(#paint18_linear_2008_1273)" stroke-width="4"/>
<path opacity="0.304348" d="M1108.36 4973.55C1109.03 4983.24 1115.6 4991.47 1124.83 4994.14L1459.62 5091.11C1465.59 5092.84 1472 5092.03 1477.38 5088.88L1885.88 4849.12C1890.27 4846.55 1893.69 4842.58 1895.61 4837.84L2055.13 4443.78C2058.3 4435.96 2057.01 4427.02 2051.77 4420.46L1855.14 4174.52C1849.9 4167.97 1841.54 4164.83 1833.33 4166.34L1419.6 4242.44C1414.62 4243.36 1410.07 4245.92 1406.68 4249.72L1090.19 4604.57C1086.02 4609.24 1083.91 4615.43 1084.33 4621.71L1108.36 4973.55Z" stroke="url(#paint19_linear_2008_1273)" stroke-width="4"/>
<path opacity="0.318841" d="M1069.28 4946.61C1069.46 4956.28 1075.56 4964.79 1084.58 4967.95L1410.88 5082.33C1416.76 5084.39 1423.22 5083.93 1428.78 5081.06L1844.42 4865.91C1848.95 4863.56 1852.59 4859.75 1854.76 4855.09L2031.84 4473.48C2035.38 4465.84 2034.55 4456.87 2029.68 4450.07L1847.3 4195.62C1842.42 4188.82 1834.26 4185.25 1826 4186.3L1413.21 4239.06L1412.97 4237.07L1413.21 4239.06C1408.16 4239.71 1403.46 4242.04 1399.86 4245.69L1069.53 4579.86C1065.12 4584.32 1062.69 4590.41 1062.8 4596.72L1069.28 4946.61Z" stroke="url(#paint20_linear_2008_1273)" stroke-width="4"/>
<path opacity="0.333333" d="M1031.81 4919.31C1031.51 4928.93 1037.13 4937.71 1045.91 4941.34L1362.86 5072.5C1368.62 5074.89 1375.12 5074.78 1380.83 5072.2L1802.19 4881.77C1806.87 4879.66 1810.72 4876.02 1813.13 4871.44L2006.91 4503.06C2010.82 4495.62 2010.45 4486.65 2005.95 4479.62L1838.15 4217.49C1833.65 4210.46 1825.72 4206.47 1817.43 4207.07L1406.85 4236.79C1401.75 4237.16 1396.9 4239.25 1393.1 4242.72L1050.2 4555.72C1045.56 4559.97 1042.81 4565.94 1042.62 4572.26L1031.81 4919.31Z" stroke="url(#paint21_linear_2008_1273)" stroke-width="4"/>
<path opacity="0.347826" d="M995.967 4891.76C995.195 4901.3 1000.31 4910.3 1008.84 4914.4L1315.6 5061.68C1321.24 5064.39 1327.75 5064.63 1333.61 5062.35L1759.27 4896.67C1764.08 4894.8 1768.14 4891.35 1770.78 4886.87L1980.38 4532.43C1984.64 4525.22 1984.73 4516.27 1980.62 4509.02L1827.67 4240.05C1823.55 4232.81 1815.87 4228.41 1807.59 4228.56L1400.45 4235.6C1395.31 4235.69 1390.34 4237.53 1386.33 4240.83L1032.16 4532.23C1027.29 4536.24 1024.24 4542.09 1023.73 4548.4L995.967 4891.76Z" stroke="url(#paint22_linear_2008_1273)" stroke-width="4"/>
<path opacity="0.362319" d="M961.737 4864.03C960.5 4873.48 965.114 4882.68 973.362 4887.22L1269.15 5049.92C1274.65 5052.94 1281.15 5053.54 1287.13 5051.57L1715.71 4910.57C1720.64 4908.95 1724.89 4905.69 1727.77 4901.33L1952.27 4561.51C1956.87 4554.53 1957.42 4545.62 1953.69 4538.19L1815.84 4263.22C1812.12 4255.79 1804.7 4251 1796.44 4250.69L1393.97 4235.5C1388.8 4235.31 1383.71 4236.89 1379.52 4239.99L1015.35 4509.46C1010.27 4513.22 1006.92 4518.92 1006.1 4525.21L961.737 4864.03Z" stroke="url(#paint23_linear_2008_1273)" stroke-width="4"/>
<path opacity="0.376812" d="M929.114 4836.23C927.421 4845.56 931.523 4854.93 939.468 4859.89L1223.55 5037.26C1228.88 5040.59 1235.36 5041.54 1241.46 5039.89L1671.56 4923.45C1676.6 4922.09 1681.04 4919.03 1684.15 4914.8L1922.61 4590.2C1927.54 4583.48 1928.54 4574.63 1925.21 4567.04L1802.64 4286.92C1799.32 4279.33 1792.19 4274.16 1783.99 4273.4L1387.34 4236.47C1382.16 4235.98 1376.96 4237.3 1372.59 4240.2L999.73 4487.46C994.445 4490.96 990.805 4496.5 989.668 4502.76L929.114 4836.23Z" stroke="url(#paint24_linear_2008_1273)" stroke-width="4"/>
<path opacity="0.391304" d="M898.084 4808.45C895.944 4817.63 899.531 4827.15 907.15 4832.51L1178.83 5023.77C1183.99 5027.4 1190.42 5028.7 1196.61 5027.38L1626.9 4935.28C1632.03 4934.18 1636.65 4931.34 1639.99 4927.24L1891.44 4618.41C1896.69 4611.97 1898.13 4603.22 1895.21 4595.48L1788.06 4311.06C1785.15 4303.33 1778.33 4297.8 1770.2 4296.59L1380.51 4238.48C1375.33 4237.71 1370.04 4238.75 1365.5 4241.44L985.238 4466.3C979.767 4469.54 975.843 4474.9 974.394 4481.11L898.084 4808.45Z" stroke="url(#paint25_linear_2008_1273)" stroke-width="4"/>
<path opacity="0.405797" d="M868.629 4780.77C866.052 4789.79 869.12 4799.42 876.395 4805.17L1135.03 5009.49C1140 5013.41 1146.37 5015.07 1152.64 5014.08L1581.77 4946.03C1586.98 4945.21 1591.77 4942.6 1595.33 4938.65L1858.8 4646.08C1864.35 4639.92 1866.23 4631.28 1863.73 4623.43L1772.09 4335.57C1769.59 4327.71 1763.1 4321.85 1755.07 4320.19L1373.42 4241.53C1368.27 4240.47 1362.89 4241.23 1358.2 4243.69L971.821 4446.05C966.177 4449 961.977 4454.17 960.22 4460.32L868.629 4780.77Z" stroke="url(#paint26_linear_2008_1273)" stroke-width="4"/>
<path opacity="0.42029" d="M840.723 4753.29C837.722 4762.12 840.268 4771.84 847.181 4777.95L1092.19 4994.5C1096.94 4998.7 1103.23 5000.71 1109.56 5000.05L1536.25 4955.7C1541.53 4955.15 1546.47 4952.78 1550.24 4948.99L1824.75 4673.11C1830.57 4667.26 1832.88 4658.75 1830.8 4650.8L1754.73 4360.36C1752.65 4352.4 1746.5 4346.22 1738.59 4344.13L1366.03 4245.59C1360.91 4244.24 1355.47 4244.71 1350.63 4246.94L959.417 4426.75C953.614 4429.41 949.149 4434.37 947.086 4440.44L840.723 4753.29Z" stroke="url(#paint27_linear_2008_1273)" stroke-width="4"/>
<path opacity="0.434783" d="M814.338 4726.09C810.925 4734.71 812.951 4744.49 819.483 4750.94L1050.32 4978.85C1054.84 4983.31 1061.03 4985.67 1067.4 4985.35L1490.39 4964.26C1495.72 4963.99 1500.81 4961.87 1504.79 4958.25L1789.32 4699.44C1795.41 4693.9 1798.14 4685.55 1796.48 4677.52L1735.99 4385.35C1734.33 4377.32 1728.53 4370.83 1720.77 4368.31L1358.28 4250.63C1353.22 4248.99 1347.73 4249.18 1342.75 4251.16L947.965 4408.45C942.018 4410.82 937.297 4415.55 934.933 4421.52L814.338 4726.09Z" stroke="url(#paint28_linear_2008_1273)" stroke-width="4"/>
<path opacity="0.449275" d="M789.442 4699.25C785.631 4707.64 787.136 4717.46 793.273 4724.22L1009.45 4962.59C1013.73 4967.31 1019.8 4970.01 1026.2 4970.04L1444.26 4971.7C1449.63 4971.72 1454.85 4969.86 1459.02 4966.42L1752.58 4724.99C1758.92 4719.77 1762.05 4711.6 1760.82 4703.52L1715.86 4410.46C1714.62 4402.38 1709.19 4395.61 1701.6 4392.67L1350.13 4256.64C1345.14 4254.7 1339.61 4254.59 1334.51 4256.33L937.398 4391.2C931.323 4393.26 926.358 4397.76 923.698 4403.62L789.442 4699.25Z" stroke="url(#paint29_linear_2008_1273)" stroke-width="4"/>
<path opacity="0.463768" d="M765.995 4672.86C761.8 4681 762.789 4690.82 768.515 4697.88L969.601 4945.79C973.629 4950.76 979.56 4953.79 985.961 4954.16L1397.92 4978.02C1403.31 4978.33 1408.66 4976.73 1413.02 4973.5L1714.58 4749.69C1721.15 4744.81 1724.68 4736.84 1723.87 4728.73L1694.35 4435.62C1693.54 4427.51 1688.49 4420.48 1681.09 4417.13L1341.53 4263.57C1336.62 4261.35 1331.08 4260.94 1325.86 4262.41L927.65 4375.04C921.463 4376.79 916.266 4381.05 913.315 4386.78L765.995 4672.86Z" stroke="url(#paint30_linear_2008_1273)" stroke-width="4"/>
<path opacity="0.478261" d="M743.958 4646.99C739.393 4654.87 739.869 4664.67 745.172 4672L930.788 4928.51C934.548 4933.71 940.322 4937.07 946.709 4937.79L1351.43 4983.22C1356.83 4983.82 1362.28 4982.49 1366.82 4979.46L1675.38 4773.47C1682.16 4768.95 1686.08 4761.19 1685.69 4753.07L1671.49 4460.75C1671.1 4452.63 1666.45 4445.36 1659.27 4441.61L1332.44 4271.4C1327.63 4268.89 1322.08 4268.18 1316.77 4269.39L918.652 4360.02C912.369 4361.45 906.952 4365.44 903.716 4371.03L743.958 4646.99Z" stroke="url(#paint31_linear_2008_1273)" stroke-width="4"/>
<path opacity="0.492754" d="M723.282 4621.72C718.365 4629.32 718.333 4639.07 723.201 4646.64L893.025 4910.82C896.503 4916.23 902.102 4919.91 908.457 4920.97L1304.86 4987.28C1310.25 4988.18 1315.8 4987.13 1320.51 4984.32L1635.05 4796.29C1642.03 4792.12 1646.32 4784.6 1646.35 4776.49L1647.29 4485.77C1647.32 4477.66 1643.08 4470.17 1636.13 4466.05L1322.81 4280.09C1318.12 4277.31 1312.58 4276.29 1307.18 4277.23L910.333 4346.15C903.97 4347.26 898.347 4350.98 894.834 4356.42L723.282 4621.72Z" stroke="url(#paint32_linear_2008_1273)" stroke-width="4"/>
<path opacity="0.507246" d="M703.92 4597.11C698.666 4604.42 698.133 4614.1 702.556 4621.89L856.321 4892.76C859.505 4898.37 864.911 4902.37 871.215 4903.78L1258.28 4990.23C1263.64 4991.42 1269.27 4990.66 1274.13 4988.07L1593.66 4818.07C1600.81 4814.27 1605.46 4807 1605.9 4798.93L1621.78 4510.61C1622.22 4502.54 1618.4 4494.85 1611.7 4490.36L1312.6 4289.61C1308.04 4286.55 1302.53 4285.23 1297.06 4285.89L902.62 4333.49C896.196 4334.26 890.38 4337.7 886.598 4342.96L703.92 4597.11Z" stroke="url(#paint33_linear_2008_1273)" stroke-width="4"/>
<path opacity="0.521739" d="M685.818 4573.24C680.243 4580.24 679.217 4589.82 683.186 4597.8L820.682 4874.41C823.561 4880.2 828.756 4884.5 834.99 4886.25L1211.73 4992.05C1217.05 4993.55 1222.74 4993.07 1227.76 4990.72L1551.27 4838.78C1558.57 4835.35 1563.57 4828.35 1564.42 4820.34L1594.98 4535.19C1595.83 4527.18 1592.43 4519.32 1586.01 4514.47L1301.77 4299.91C1297.37 4296.59 1291.9 4294.96 1286.38 4295.34L895.442 4322.04C888.973 4322.48 882.979 4325.63 878.936 4330.71L685.818 4573.24Z" stroke="url(#paint34_linear_2008_1273)" stroke-width="4"/>
<path opacity="0.536232" d="M668.918 4550.18C663.041 4556.85 661.531 4566.31 665.038 4574.46L786.11 4855.82C788.673 4861.78 793.641 4866.37 799.787 4868.46L1165.29 4992.77C1170.55 4994.56 1176.29 4994.39 1181.44 4992.27L1507.95 4858.36C1515.4 4855.31 1520.72 4848.6 1521.98 4840.66L1566.91 4559.46C1568.18 4551.52 1565.21 4543.51 1559.08 4538.33L1290.3 4310.97C1286.06 4307.38 1280.65 4305.45 1275.09 4305.54L888.723 4311.83C882.227 4311.93 876.071 4314.78 871.775 4319.66L668.918 4550.18Z" stroke="url(#paint35_linear_2008_1273)" stroke-width="4"/>
<path opacity="0.550725" d="M653.162 4527.97C647.001 4534.31 645.016 4543.62 648.056 4551.91L752.604 4837.06C754.843 4843.17 759.567 4848.04 765.606 4850.47L1119.01 4992.4C1124.19 4994.49 1129.97 4994.61 1135.25 4992.74L1463.79 4876.77C1471.35 4874.1 1476.98 4867.69 1478.65 4859.86L1537.63 4583.33C1539.3 4575.5 1536.77 4567.36 1530.95 4561.86L1278.14 4322.73C1274.08 4318.89 1268.75 4316.66 1263.16 4316.46L882.39 4302.87C875.884 4302.64 869.581 4305.18 865.043 4309.85L653.162 4527.97Z" stroke="url(#paint36_linear_2008_1273)" stroke-width="4"/>
<path opacity="0.565217" d="M638.487 4506.68C632.059 4512.68 629.611 4521.81 632.18 4530.22L720.16 4818.19C722.066 4824.43 726.531 4829.56 732.444 4832.32L1072.95 4990.95C1078.04 4993.33 1083.83 4993.75 1089.22 4992.15L1418.85 4893.97C1426.51 4891.69 1432.44 4885.6 1434.5 4877.88L1507.15 4606.76C1509.22 4599.04 1507.13 4590.8 1501.64 4585L1265.26 4335.16C1261.4 4331.07 1256.17 4328.55 1250.57 4328.05L876.367 4295.19C869.869 4294.62 863.435 4296.83 858.665 4301.28L638.487 4506.68Z" stroke="url(#paint37_linear_2008_1273)" stroke-width="4"/>
<path opacity="0.57971" d="M624.827 4486.36C618.152 4492 615.253 4500.94 617.347 4509.44L688.772 4799.26C690.337 4805.61 694.527 4810.99 700.296 4814.07L1027.16 4988.45C1032.15 4991.12 1037.95 4991.85 1043.44 4990.5L1373.22 4909.94C1380.96 4908.05 1387.16 4902.28 1389.62 4894.7L1475.53 4629.66C1477.99 4622.09 1476.35 4613.77 1471.2 4607.68L1251.65 4348.21C1247.99 4343.89 1242.88 4341.06 1237.28 4340.28L870.58 4288.77C864.108 4287.87 857.559 4289.76 852.569 4293.97L624.827 4486.36Z" stroke="url(#paint38_linear_2008_1273)" stroke-width="4"/>
<path opacity="0.594203" d="M612.115 4467.05C605.212 4472.33 601.875 4481.05 603.492 4489.61L658.427 4780.33C659.645 4786.77 663.547 4792.4 669.154 4795.79L981.717 4984.92C986.583 4987.86 992.362 4988.9 997.939 4987.83L1326.97 4924.63C1334.76 4923.13 1341.23 4917.71 1344.06 4910.29L1442.81 4652C1445.65 4644.58 1444.46 4636.21 1439.66 4629.86L1237.27 4361.83C1233.84 4357.29 1228.85 4354.17 1223.27 4353.09L864.953 4283.64C858.526 4282.39 851.878 4283.95 846.678 4287.92L612.115 4467.05Z" stroke="url(#paint39_linear_2008_1273)" stroke-width="4"/>
<path opacity="0.608696" d="M600.282 4448.81C593.17 4453.71 589.409 4462.2 590.549 4470.79L629.114 4761.46C629.979 4767.98 633.578 4773.82 639.006 4777.52L936.657 4980.38C941.384 4983.6 947.133 4984.95 952.783 4984.15L1280.19 4938.03C1288.02 4936.93 1294.72 4931.86 1297.93 4924.62L1409.03 4673.71C1412.24 4666.47 1411.5 4658.07 1407.08 4651.48L1222.09 4375.98C1218.9 4371.22 1214.06 4367.83 1208.52 4366.45L859.414 4279.78C853.048 4278.2 846.319 4279.42 840.922 4283.14L600.282 4448.81Z" stroke="url(#paint40_linear_2008_1273)" stroke-width="4"/>
<path opacity="0.623188" d="M589.256 4431.66C581.954 4436.18 577.785 4444.41 578.449 4453.01L600.814 4742.7C601.322 4749.27 604.607 4755.32 609.839 4759.32L892.038 4974.87C896.61 4978.36 902.313 4980.01 908.023 4979.5L1232.94 4950.13C1240.79 4949.42 1247.71 4944.71 1251.28 4937.67L1374.25 4694.74C1377.81 4687.7 1377.52 4679.29 1373.48 4672.49L1206.11 4390.61C1203.17 4385.66 1198.49 4381.98 1192.99 4380.31L853.888 4277.19C847.6 4275.28 840.807 4276.16 835.225 4279.61L589.256 4431.66Z" stroke="url(#paint41_linear_2008_1273)" stroke-width="4"/>
<path opacity="0.637681" d="M578.963 4415.65C571.493 4419.77 566.931 4427.73 567.121 4436.31L573.509 4724.11C573.656 4730.72 576.615 4736.95 581.635 4741.24L847.91 4968.41C852.311 4972.17 857.951 4974.12 863.708 4973.89L1185.32 4960.9C1193.17 4960.58 1200.29 4956.25 1204.21 4949.42L1338.51 4715.05C1342.42 4708.21 1342.58 4699.83 1338.93 4692.83L1189.3 4405.68C1186.62 4400.54 1182.12 4396.6 1176.69 4394.63L848.302 4275.86C842.111 4273.62 835.271 4274.15 829.517 4277.33L578.963 4415.65Z" stroke="url(#paint42_linear_2008_1273)" stroke-width="4"/>
<path opacity="0.652174" d="M569.331 4400.79C561.712 4404.52 556.773 4412.19 556.494 4420.73L547.177 4705.74C546.961 4712.36 549.583 4718.77 554.375 4723.33L804.319 4961.04C808.535 4965.05 814.097 4967.31 819.887 4967.37L1137.41 4970.34C1145.23 4970.41 1152.54 4966.46 1156.79 4959.86L1301.86 4734.58C1306.12 4727.98 1306.72 4719.64 1303.47 4712.46L1171.64 4421.13C1169.24 4415.82 1164.93 4411.62 1159.58 4409.36L842.586 4275.77C836.508 4273.21 829.637 4273.4 823.725 4276.29L569.331 4400.79Z" stroke="url(#paint43_linear_2008_1273)" stroke-width="4"/>
<path opacity="0.666667" d="M560.283 4387.13C552.535 4390.46 547.239 4397.81 546.496 4406.28L521.793 4687.64C521.212 4694.25 523.487 4700.81 528.037 4705.63L761.313 4952.81C765.329 4957.06 770.797 4959.62 776.605 4959.96L1089.28 4978.44C1097.06 4978.9 1104.53 4975.34 1109.1 4968.99L1264.38 4753.3C1268.95 4746.94 1270 4738.67 1267.16 4731.34L1153.14 4436.92C1151.02 4431.45 1146.92 4427 1141.67 4424.46L836.669 4276.91C830.72 4274.03 823.837 4273.88 817.78 4276.48L560.283 4387.13Z" stroke="url(#paint44_linear_2008_1273)" stroke-width="4"/>
<path opacity="0.681159" d="M551.744 4374.66C543.889 4377.59 538.253 4384.62 537.052 4392.99L497.33 4669.85C496.384 4676.44 498.304 4683.13 502.596 4688.2L718.934 4943.74C722.737 4948.23 728.094 4951.08 733.908 4951.72L1041.01 4985.22C1048.73 4986.06 1056.35 4982.89 1061.23 4976.8L1226.1 4771.16C1230.98 4765.08 1232.47 4756.9 1230.05 4749.44L1133.77 4453C1131.94 4447.39 1128.06 4442.69 1122.92 4439.87L830.482 4279.25C824.68 4276.07 817.802 4275.56 811.614 4277.87L551.744 4374.66Z" stroke="url(#paint45_linear_2008_1273)" stroke-width="4"/>
<path opacity="0.695652" d="M543.638 4363.42C535.695 4365.94 529.739 4372.63 528.089 4380.88L473.758 4652.43C472.448 4658.98 474.005 4665.78 478.027 4671.09L677.223 4933.87C680.798 4938.59 686.031 4941.74 691.836 4942.66L992.686 4990.66C1000.33 4991.88 1008.06 4989.11 1013.24 4983.3L1187.1 4788.15C1192.27 4782.34 1194.19 4774.28 1192.19 4766.72L1113.53 4469.32C1112.01 4463.58 1108.36 4458.65 1103.35 4455.55L823.96 4282.78C818.319 4279.29 811.464 4278.43 805.159 4280.43L543.638 4363.42Z" stroke="url(#paint46_linear_2008_1273)" stroke-width="4"/>
<path opacity="0.710145" d="M535.888 4353.42C527.879 4355.53 521.624 4361.86 519.534 4369.96L451.046 4635.42C449.374 4641.9 450.561 4648.79 454.299 4654.32L636.219 4923.27C639.554 4928.2 644.646 4931.63 650.429 4932.85L944.383 4994.79C951.932 4996.38 959.765 4994.01 965.218 4988.5L1147.42 4804.22C1152.88 4798.7 1155.21 4790.78 1153.64 4783.15L1092.41 4485.83C1091.21 4479.98 1087.81 4474.83 1082.94 4471.46L817.039 4287.45C811.574 4283.66 804.758 4282.46 798.352 4284.15L535.888 4353.42Z" stroke="url(#paint47_linear_2008_1273)" stroke-width="4"/>
<path opacity="0.724638" d="M528.418 4344.64C520.363 4346.35 513.83 4352.3 511.311 4360.23L429.159 4618.85C427.129 4625.25 427.94 4632.21 431.383 4637.94L595.956 4911.95C599.039 4917.09 603.976 4920.8 609.723 4922.31L896.177 4997.61C903.612 4999.57 911.524 4997.61 917.238 4992.4L1107.14 4819.35C1112.86 4814.14 1115.61 4806.38 1114.46 4798.69L1070.43 4502.48C1069.54 4496.54 1066.41 4491.18 1061.69 4487.54L809.654 4293.23C804.381 4289.17 797.621 4287.62 791.128 4289L528.418 4344.64Z" stroke="url(#paint48_linear_2008_1273)" stroke-width="4"/>
<path opacity="0.73913" d="M521.153 4337.11C513.073 4338.41 506.283 4343.98 503.347 4351.71L408.063 4602.78C405.678 4609.06 406.11 4616.08 409.246 4622L556.467 4899.99C559.286 4905.31 564.054 4909.3 569.751 4911.1L848.144 4999.16C855.447 5001.47 863.418 4999.92 869.375 4995.04L1066.31 4833.52C1072.27 4828.63 1075.42 4821.06 1074.71 4813.34L1047.57 4519.22C1047.01 4513.21 1044.15 4507.65 1039.6 4503.75L801.747 4300.09C796.68 4295.75 789.993 4293.87 783.428 4294.92L521.153 4337.11Z" stroke="url(#paint49_linear_2008_1273)" stroke-width="4"/>
<path opacity="0.753623" d="M514.017 4330.81C505.932 4331.71 498.909 4336.88 495.57 4344.4L387.72 4587.23C384.985 4593.38 385.034 4600.43 387.853 4606.53L517.783 4887.42C520.327 4892.92 524.912 4897.17 530.546 4899.27L800.356 4999.45C807.511 5002.1 815.519 5000.97 821.702 4996.41L1025 4846.7C1031.19 4842.15 1034.73 4834.78 1034.45 4827.07L1023.84 4536.01C1023.62 4529.94 1021.04 4524.2 1016.66 4520.05L793.261 4307.99C788.414 4303.39 781.816 4301.16 775.194 4301.9L514.017 4330.81Z" stroke="url(#paint50_linear_2008_1273)" stroke-width="4"/>
<path opacity="0.768116" d="M506.936 4325.74C498.868 4326.23 491.634 4331 487.908 4338.27L368.09 4572.23C365.013 4578.24 364.676 4585.3 367.17 4591.55L479.931 4874.29C482.189 4879.95 486.577 4884.47 492.134 4886.85L752.884 4998.51C759.875 5001.5 767.899 5000.77 774.288 4996.56L983.273 4858.9C989.663 4854.69 993.583 4847.55 993.731 4839.85L999.245 4552.81C999.363 4546.69 997.081 4540.78 992.9 4536.39L784.141 4316.88C779.526 4312.03 773.034 4309.47 766.37 4309.88L506.936 4325.74Z" stroke="url(#paint51_linear_2008_1273)" stroke-width="4"/>
<path opacity="0.782609" d="M499.839 4321.88C491.807 4321.98 484.387 4326.33 480.289 4333.34L349.134 4557.83C345.721 4563.67 344.999 4570.72 347.157 4577.11L442.933 4860.66C444.896 4866.47 449.074 4871.24 454.542 4873.9L705.798 4996.37C712.609 4999.69 720.627 4999.37 727.204 4995.51L941.186 4870.09C947.763 4866.23 952.046 4859.35 952.62 4851.7L973.8 4569.55C974.261 4563.41 972.284 4557.35 968.308 4552.72L774.336 4326.72C769.965 4321.63 763.595 4318.74 756.905 4318.82L499.839 4321.88Z" stroke="url(#paint52_linear_2008_1273)" stroke-width="4"/>
<path opacity="0.797101" d="M492.653 4319.22C484.679 4318.92 477.096 4322.85 472.645 4329.58L330.811 4544.05C327.07 4549.7 325.962 4556.71 327.778 4563.22L406.812 4846.58C408.471 4852.52 412.426 4857.53 417.791 4860.48L659.163 4993.07C665.779 4996.7 673.77 4996.79 680.515 4993.3L898.804 4880.27C905.549 4876.78 910.178 4870.16 911.174 4862.58L947.512 4586.2C948.32 4580.06 946.658 4573.86 942.899 4569L763.797 4337.46C759.681 4332.14 753.449 4328.93 746.749 4328.68L492.653 4319.22Z" stroke="url(#paint53_linear_2008_1273)" stroke-width="4"/>
<path opacity="0.811594" d="M485.309 4317.74C477.412 4317.05 469.692 4320.55 464.906 4326.98L313.076 4530.91C309.019 4536.36 307.525 4543.31 308.992 4549.92L371.585 4832.09C372.931 4838.16 376.65 4843.4 381.901 4846.63L613.042 4988.65C619.45 4992.59 627.393 4993.08 634.285 4989.95L856.19 4889.44C863.082 4886.32 868.041 4879.99 869.453 4872.51L920.395 4602.71C921.553 4596.59 920.214 4590.27 916.683 4585.19L752.479 4349.05C748.63 4343.51 742.551 4339.99 735.855 4339.41L485.309 4317.74Z" stroke="url(#paint54_linear_2008_1273)" stroke-width="4"/>
<path opacity="0.826087" d="M477.741 4317.4C469.94 4316.34 462.108 4319.4 457.008 4325.51L295.887 4518.44C291.523 4523.66 289.647 4530.54 290.759 4537.24L337.267 4817.26C338.292 4823.44 341.765 4828.9 346.888 4832.4L567.497 4983.16C573.682 4987.38 581.556 4988.27 588.574 4985.52L813.405 4897.6C820.423 4894.86 825.695 4888.83 827.516 4881.47L892.466 4619.05L894.398 4619.52L892.466 4619.05C893.974 4612.96 892.967 4606.53 889.675 4601.24L740.34 4361.42C736.768 4355.69 730.857 4351.86 724.181 4350.95L477.741 4317.4Z" stroke="url(#paint55_linear_2008_1273)" stroke-width="4"/>
<path opacity="0.84058" d="M469.882 4318.19C462.197 4316.76 454.279 4319.38 448.886 4325.15L279.2 4506.65C274.541 4511.64 272.286 4518.42 273.038 4525.18L303.87 4802.14C304.567 4808.41 307.781 4814.08 312.765 4817.85L522.583 4976.63C528.533 4981.13 536.319 4982.41 543.441 4980.05L770.512 4904.75C777.634 4902.39 783.199 4896.69 785.42 4889.48L863.741 4635.16C865.601 4629.12 864.933 4622.6 861.891 4617.12L727.341 4374.54C724.056 4368.62 718.327 4364.49 711.687 4363.25L469.882 4318.19L470.263 4316.21L469.882 4318.19Z" stroke="url(#paint56_linear_2008_1273)" stroke-width="4"/>
<path opacity="0.855072" d="M461.67 4320.06C454.119 4318.27 446.142 4320.46 440.478 4325.87L262.969 4495.58C258.028 4500.3 255.398 4506.96 255.787 4513.77L271.403 4786.79C271.765 4793.12 274.71 4799 279.543 4803.04L478.356 4969.13C484.059 4973.89 491.735 4975.55 498.94 4973.57L727.569 4910.91C734.774 4908.94 740.611 4903.58 743.222 4896.53L834.241 4651.01C836.454 4645.05 836.131 4638.45 833.349 4632.78L713.448 4388.34C710.458 4382.24 704.926 4377.82 698.338 4376.25L461.67 4320.06Z" stroke="url(#paint57_linear_2008_1273)" stroke-width="4"/>
<path opacity="0.869565" d="M453.046 4322.99C445.648 4320.85 437.636 4322.6 431.725 4327.64L247.149 4485.22C241.939 4489.67 238.941 4496.19 238.964 4503.02L239.871 4771.25C239.892 4777.64 242.557 4783.71 247.227 4788.01L434.866 4960.69C440.31 4965.7 447.857 4967.74 455.123 4966.15L684.634 4916.09C691.9 4914.5 697.989 4909.5 700.978 4902.65L803.988 4666.56C806.552 4660.69 806.581 4654.03 804.068 4648.18L698.63 4402.75C695.943 4396.5 690.621 4391.79 684.099 4389.91L453.046 4322.99Z" stroke="url(#paint58_linear_2008_1273)" stroke-width="4"/>
<path opacity="0.884058" d="M443.952 4326.93C436.723 4324.45 428.704 4325.76 422.571 4330.43L231.695 4475.6C226.232 4479.75 222.872 4486.11 222.526 4492.95L209.277 4755.59C208.952 4762.02 211.326 4768.27 215.822 4772.82L392.159 4951.39C397.335 4956.63 404.733 4959.03 412.037 4957.84L641.766 4920.3C649.07 4919.1 655.388 4914.46 658.742 4907.83L773.005 4681.77C775.919 4676.01 776.305 4669.31 774.071 4663.29L682.858 4417.73C680.482 4411.33 675.383 4406.35 668.943 4404.14L443.952 4326.93Z" stroke="url(#paint59_linear_2008_1273)" stroke-width="4"/>
<path opacity="0.898551" d="M434.335 4331.85C427.292 4329.04 419.29 4329.92 412.96 4334.19L216.561 4466.71C210.859 4470.56 207.145 4476.74 206.431 4483.57L179.62 4739.85C178.944 4746.31 181.017 4752.73 185.329 4757.53L350.278 4941.27C355.176 4946.73 362.407 4949.48 369.727 4948.68L599.019 4923.56C606.339 4922.76 612.863 4918.5 616.568 4912.1L741.318 4696.61C744.579 4690.98 745.328 4684.25 743.381 4678.08L666.11 4433.2C664.051 4426.68 659.187 4421.44 652.844 4418.91L434.335 4331.85Z" stroke="url(#paint60_linear_2008_1273)" stroke-width="4"/>
<path opacity="0.913043" d="M424.142 4337.68C417.302 4334.57 409.344 4335.01 402.843 4338.88L201.701 4458.58C195.778 4462.1 191.72 4468.08 190.636 4474.88L150.897 4724.09C149.867 4730.56 151.629 4737.13 155.745 4742.18L309.262 4930.4C313.875 4936.06 320.92 4939.16 328.233 4938.74L556.446 4925.9C563.759 4925.48 570.466 4921.61 574.506 4915.47L708.955 4711.04C712.56 4705.56 713.676 4698.82 712.024 4692.5L648.364 4449.11C646.628 4442.47 642.013 4436.98 635.781 4434.14L424.142 4337.68Z" stroke="url(#paint61_linear_2008_1273)" stroke-width="4"/>
<path opacity="0.927536" d="M413.328 4344.39C406.705 4340.98 398.816 4341.01 392.171 4344.46L187.07 4451.2C180.944 4454.39 176.551 4460.14 175.099 4466.88L123.102 4708.37C121.713 4714.83 123.156 4721.55 127.065 4726.83L269.148 4918.84C273.467 4924.68 280.309 4928.1 287.593 4928.08L514.1 4927.33C521.384 4927.31 528.248 4923.84 532.606 4917.97L675.944 4725.02C679.888 4719.71 681.375 4712.98 680.027 4706.54L629.606 4465.38C628.198 4458.65 623.842 4452.92 617.736 4449.78L413.328 4344.39Z" stroke="url(#paint62_linear_2008_1273)" stroke-width="4"/>
<path opacity="0.942029" d="M401.848 4351.93C395.457 4348.24 387.661 4347.85 380.899 4350.89L172.624 4444.57C166.312 4447.41 161.596 4452.92 159.778 4459.59L96.2255 4692.74C94.4738 4699.17 95.5884 4706.02 99.2814 4711.54L229.965 4906.65C233.984 4912.65 240.607 4916.39 247.839 4916.75L472.028 4927.9C479.26 4928.26 486.258 4925.19 490.915 4919.62L642.315 4738.53C646.594 4733.42 648.455 4726.71 647.419 4720.14L609.822 4481.97C608.746 4475.15 604.662 4469.2 598.696 4465.75L401.848 4351.93Z" stroke="url(#paint63_linear_2008_1273)" stroke-width="4"/>
<path opacity="0.956522" d="M389.661 4360.24C383.515 4356.28 375.837 4355.49 368.986 4358.11L158.318 4438.69C151.84 4441.17 146.812 4446.42 144.631 4453L70.2542 4677.25C68.1381 4683.63 68.9153 4690.61 72.3818 4696.34L191.74 4893.9C195.455 4900.04 201.842 4904.09 209.001 4904.83L430.277 4927.63C437.436 4928.37 444.542 4925.71 449.478 4920.45L608.1 4751.55C612.707 4746.64 614.945 4739.98 614.228 4733.3L589.004 4498.79C588.265 4491.91 584.461 4485.74 578.65 4482L389.661 4360.24Z" stroke="url(#paint64_linear_2008_1273)" stroke-width="4"/>
<path opacity="0.971014" d="M376.732 4369.26C370.842 4365.06 363.306 4363.87 356.393 4366.07L144.108 4433.55C137.484 4435.66 132.159 4440.64 129.618 4447.1L45.1737 4661.95C42.6912 4668.27 43.1227 4675.35 46.3528 4681.3L154.497 4880.65C157.903 4886.92 164.04 4891.25 171.104 4892.36L388.892 4926.55C395.956 4927.66 403.143 4925.42 408.338 4920.49L573.332 4764.03C578.26 4759.36 580.878 4752.75 580.486 4745.98L567.149 4515.79C566.747 4508.86 563.235 4502.49 557.592 4498.46L376.732 4369.26Z" stroke="url(#paint65_linear_2008_1273)" stroke-width="4"/>
<path opacity="0.985507" d="M363.027 4378.95C357.405 4374.51 350.032 4372.95 343.086 4374.72L129.952 4429.16C123.203 4430.88 117.595 4435.57 114.699 4441.9L20.9664 4646.9C18.1162 4653.13 18.1937 4660.31 21.1777 4666.47L118.255 4866.97C121.348 4873.35 127.221 4877.95 134.169 4879.42L347.914 4924.7C354.862 4926.17 362.104 4924.36 367.537 4919.77L538.045 4775.96C543.286 4771.54 546.285 4765.01 546.225 4758.16L544.255 4532.9C544.194 4525.94 540.982 4519.38 535.52 4515.07L363.027 4378.95Z" stroke="url(#paint66_linear_2008_1273)" stroke-width="4"/>
<path d="M348.518 4389.23C343.174 4384.58 335.986 4382.66 329.034 4384.01L115.808 4425.5C108.955 4426.83 103.079 4431.2 99.8349 4437.38L-2.38886 4632.13C-5.6074 4638.26 -5.89182 4645.52 -3.16311 4651.88L83.0258 4852.93C85.8041 4859.41 91.4015 4864.25 98.2123 4866.08L307.382 4922.13C314.192 4923.95 321.464 4922.55 327.11 4918.33L502.273 4787.31C507.819 4783.17 511.2 4776.74 511.479 4769.82L520.325 4550.05C520.606 4543.08 517.703 4536.35 512.436 4531.77L348.518 4389.23Z" stroke="url(#paint67_linear_2008_1273)" stroke-width="4"/>
</g>
<defs>
<filter id="filter0_f_2008_1273" x="880" y="576" width="846" height="846" filterUnits="userSpaceOnUse" color-interpolation-filters="sRGB">
<feFlood flood-opacity="0" result="BackgroundImageFix"/>
<feBlend mode="normal" in="SourceGraphic" in2="BackgroundImageFix" result="shape"/>
<feGaussianBlur stdDeviation="100" result="effect1_foregroundBlur_2008_1273"/>
</filter>
<filter id="filter1_f_2008_1273" x="-28" y="535" width="864" height="862" filterUnits="userSpaceOnUse" color-interpolation-filters="sRGB">
<feFlood flood-opacity="0" result="BackgroundImageFix"/>
<feBlend mode="normal" in="SourceGraphic" in2="BackgroundImageFix" result="shape"/>
<feGaussianBlur stdDeviation="100" result="effect1_foregroundBlur_2008_1273"/>
</filter>
<filter id="filter2_f_2008_1273" x="356" y="395" width="967" height="967" filterUnits="userSpaceOnUse" color-interpolation-filters="sRGB">
<feFlood flood-opacity="0" result="BackgroundImageFix"/>
<feBlend mode="normal" in="SourceGraphic" in2="BackgroundImageFix" result="shape"/>
<feGaussianBlur stdDeviation="125" result="effect1_foregroundBlur_2008_1273"/>
</filter>
<linearGradient id="paint0_linear_2008_1273" x1="2195.41" y1="5308.58" x2="1960.58" y2="3871.53" gradientUnits="userSpaceOnUse">
<stop stop-color="#8593E8"/>
<stop offset="1" stop-color="#6F9DF5"/>
</linearGradient>
<linearGradient id="paint1_linear_2008_1273" x1="2131.93" y1="5307.87" x2="1974.66" y2="3872.5" gradientUnits="userSpaceOnUse">
<stop stop-color="#8593E8"/>
<stop offset="1" stop-color="#6F9DF5"/>
</linearGradient>
<linearGradient id="paint2_linear_2008_1273" x1="2068.9" y1="5305.19" x2="1988.43" y2="3875.73" gradientUnits="userSpaceOnUse">
<stop stop-color="#8593E8"/>
<stop offset="1" stop-color="#6F9DF5"/>
</linearGradient>
<linearGradient id="paint3_linear_2008_1273" x1="2006.42" y1="5300.59" x2="2001.73" y2="3881.19" gradientUnits="userSpaceOnUse">
<stop stop-color="#8593E8"/>
<stop offset="1" stop-color="#6F9DF5"/>
</linearGradient>
<linearGradient id="paint4_linear_2008_1273" x1="1944.58" y1="5294.11" x2="2014.45" y2="3888.87" gradientUnits="userSpaceOnUse">
<stop stop-color="#8593E8"/>
<stop offset="1" stop-color="#6F9DF5"/>
</linearGradient>
<linearGradient id="paint5_linear_2008_1273" x1="1883.49" y1="5285.8" x2="2026.42" y2="3898.7" gradientUnits="userSpaceOnUse">
<stop stop-color="#8593E8"/>
<stop offset="1" stop-color="#6F9DF5"/>
</linearGradient>
<linearGradient id="paint6_linear_2008_1273" x1="1823.24" y1="5275.74" x2="2037.53" y2="3910.63" gradientUnits="userSpaceOnUse">
<stop stop-color="#8593E8"/>
<stop offset="1" stop-color="#6F9DF5"/>
</linearGradient>
<linearGradient id="paint7_linear_2008_1273" x1="1763.9" y1="5263.96" x2="2047.63" y2="3924.59" gradientUnits="userSpaceOnUse">
<stop stop-color="#8593E8"/>
<stop offset="1" stop-color="#6F9DF5"/>
</linearGradient>
<linearGradient id="paint8_linear_2008_1273" x1="1705.57" y1="5250.55" x2="2056.6" y2="3940.5" gradientUnits="userSpaceOnUse">
<stop stop-color="#8593E8"/>
<stop offset="1" stop-color="#6F9DF5"/>
</linearGradient>
<linearGradient id="paint9_linear_2008_1273" x1="1648.33" y1="5235.58" x2="2064.32" y2="3958.28" gradientUnits="userSpaceOnUse">
<stop stop-color="#8593E8"/>
<stop offset="1" stop-color="#6F9DF5"/>
</linearGradient>
<linearGradient id="paint10_linear_2008_1273" x1="1592.24" y1="5219.12" x2="2070.68" y2="3977.82" gradientUnits="userSpaceOnUse">
<stop stop-color="#8593E8"/>
<stop offset="1" stop-color="#6F9DF5"/>
</linearGradient>
<linearGradient id="paint11_linear_2008_1273" x1="1537.37" y1="5201.25" x2="2075.58" y2="3999.02" gradientUnits="userSpaceOnUse">
<stop stop-color="#8593E8"/>
<stop offset="1" stop-color="#6F9DF5"/>
</linearGradient>
<linearGradient id="paint12_linear_2008_1273" x1="1483.8" y1="5182.05" x2="2078.92" y2="4021.77" gradientUnits="userSpaceOnUse">
<stop stop-color="#8593E8"/>
<stop offset="1" stop-color="#6F9DF5"/>
</linearGradient>
<linearGradient id="paint13_linear_2008_1273" x1="1431.57" y1="5161.6" x2="2080.61" y2="4045.94" gradientUnits="userSpaceOnUse">
<stop stop-color="#8593E8"/>
<stop offset="1" stop-color="#6F9DF5"/>
</linearGradient>
<linearGradient id="paint14_linear_2008_1273" x1="1380.75" y1="5140" x2="2080.6" y2="4071.42" gradientUnits="userSpaceOnUse">
<stop stop-color="#8593E8"/>
<stop offset="1" stop-color="#6F9DF5"/>
</linearGradient>
<linearGradient id="paint15_linear_2008_1273" x1="1331.38" y1="5117.33" x2="2078.81" y2="4098.06" gradientUnits="userSpaceOnUse">
<stop stop-color="#8593E8"/>
<stop offset="1" stop-color="#6F9DF5"/>
</linearGradient>
<linearGradient id="paint16_linear_2008_1273" x1="1283.5" y1="5093.68" x2="2075.2" y2="4125.75" gradientUnits="userSpaceOnUse">
<stop stop-color="#8593E8"/>
<stop offset="1" stop-color="#6F9DF5"/>
</linearGradient>
<linearGradient id="paint17_linear_2008_1273" x1="1237.15" y1="5069.16" x2="2069.72" y2="4154.34" gradientUnits="userSpaceOnUse">
<stop stop-color="#8593E8"/>
<stop offset="1" stop-color="#6F9DF5"/>
</linearGradient>
<linearGradient id="paint18_linear_2008_1273" x1="1149.17" y1="5017.84" x2="2053.09" y2="4213.73" gradientUnits="userSpaceOnUse">
<stop stop-color="#8593E8"/>
<stop offset="1" stop-color="#6F9DF5"/>
</linearGradient>
<linearGradient id="paint19_linear_2008_1273" x1="1107.58" y1="4991.24" x2="2041.91" y2="4244.26" gradientUnits="userSpaceOnUse">
<stop stop-color="#8593E8"/>
<stop offset="1" stop-color="#6F9DF5"/>
</linearGradient>
<linearGradient id="paint20_linear_2008_1273" x1="1067.62" y1="4964.14" x2="2028.82" y2="4275.18" gradientUnits="userSpaceOnUse">
<stop stop-color="#8593E8"/>
<stop offset="1" stop-color="#6F9DF5"/>
</linearGradient>
<linearGradient id="paint21_linear_2008_1273" x1="1029.29" y1="4936.64" x2="2013.83" y2="4306.37" gradientUnits="userSpaceOnUse">
<stop stop-color="#8593E8"/>
<stop offset="1" stop-color="#6F9DF5"/>
</linearGradient>
<linearGradient id="paint22_linear_2008_1273" x1="992.593" y1="4908.83" x2="1996.97" y2="4337.7" gradientUnits="userSpaceOnUse">
<stop stop-color="#8593E8"/>
<stop offset="1" stop-color="#6F9DF5"/>
</linearGradient>
<linearGradient id="paint23_linear_2008_1273" x1="957.536" y1="4880.81" x2="1978.27" y2="4369.08" gradientUnits="userSpaceOnUse">
<stop stop-color="#8593E8"/>
<stop offset="1" stop-color="#6F9DF5"/>
</linearGradient>
<linearGradient id="paint24_linear_2008_1273" x1="924.108" y1="4852.67" x2="1957.76" y2="4400.38" gradientUnits="userSpaceOnUse">
<stop stop-color="#8593E8"/>
<stop offset="1" stop-color="#6F9DF5"/>
</linearGradient>
<linearGradient id="paint25_linear_2008_1273" x1="892.297" y1="4824.52" x2="1935.49" y2="4431.51" gradientUnits="userSpaceOnUse">
<stop stop-color="#8593E8"/>
<stop offset="1" stop-color="#6F9DF5"/>
</linearGradient>
<linearGradient id="paint26_linear_2008_1273" x1="862.085" y1="4796.43" x2="1911.49" y2="4462.38" gradientUnits="userSpaceOnUse">
<stop stop-color="#8593E8"/>
<stop offset="1" stop-color="#6F9DF5"/>
</linearGradient>
<linearGradient id="paint27_linear_2008_1273" x1="833.451" y1="4768.5" x2="1885.83" y2="4492.89" gradientUnits="userSpaceOnUse">
<stop stop-color="#8593E8"/>
<stop offset="1" stop-color="#6F9DF5"/>
</linearGradient>
<linearGradient id="paint28_linear_2008_1273" x1="806.367" y1="4740.81" x2="1858.55" y2="4522.97" gradientUnits="userSpaceOnUse">
<stop stop-color="#8593E8"/>
<stop offset="1" stop-color="#6F9DF5"/>
</linearGradient>
<linearGradient id="paint29_linear_2008_1273" x1="780.801" y1="4713.46" x2="1829.72" y2="4552.55" gradientUnits="userSpaceOnUse">
<stop stop-color="#8593E8"/>
<stop offset="1" stop-color="#6F9DF5"/>
</linearGradient>
<linearGradient id="paint30_linear_2008_1273" x1="756.717" y1="4686.53" x2="1799.39" y2="4581.54" gradientUnits="userSpaceOnUse">
<stop stop-color="#8593E8"/>
<stop offset="1" stop-color="#6F9DF5"/>
</linearGradient>
<linearGradient id="paint31_linear_2008_1273" x1="734.074" y1="4660.08" x2="1767.63" y2="4609.89" gradientUnits="userSpaceOnUse">
<stop stop-color="#8593E8"/>
<stop offset="1" stop-color="#6F9DF5"/>
</linearGradient>
<linearGradient id="paint32_linear_2008_1273" x1="712.827" y1="4634.21" x2="1734.49" y2="4637.55" gradientUnits="userSpaceOnUse">
<stop stop-color="#8593E8"/>
<stop offset="1" stop-color="#6F9DF5"/>
</linearGradient>
<linearGradient id="paint33_linear_2008_1273" x1="692.927" y1="4608.99" x2="1700.03" y2="4664.45" gradientUnits="userSpaceOnUse">
<stop stop-color="#8593E8"/>
<stop offset="1" stop-color="#6F9DF5"/>
</linearGradient>
<linearGradient id="paint34_linear_2008_1273" x1="674.323" y1="4584.48" x2="1664.33" y2="4690.55" gradientUnits="userSpaceOnUse">
<stop stop-color="#8593E8"/>
<stop offset="1" stop-color="#6F9DF5"/>
</linearGradient>
<linearGradient id="paint35_linear_2008_1273" x1="656.957" y1="4560.74" x2="1627.43" y2="4715.8" gradientUnits="userSpaceOnUse">
<stop stop-color="#8593E8"/>
<stop offset="1" stop-color="#6F9DF5"/>
</linearGradient>
<linearGradient id="paint36_linear_2008_1273" x1="640.772" y1="4537.86" x2="1589.4" y2="4740.17" gradientUnits="userSpaceOnUse">
<stop stop-color="#8593E8"/>
<stop offset="1" stop-color="#6F9DF5"/>
</linearGradient>
<linearGradient id="paint37_linear_2008_1273" x1="625.704" y1="4515.87" x2="1550.31" y2="4763.62" gradientUnits="userSpaceOnUse">
<stop stop-color="#8593E8"/>
<stop offset="1" stop-color="#6F9DF5"/>
</linearGradient>
<linearGradient id="paint38_linear_2008_1273" x1="611.69" y1="4494.84" x2="1510.2" y2="4786.1" gradientUnits="userSpaceOnUse">
<stop stop-color="#8593E8"/>
<stop offset="1" stop-color="#6F9DF5"/>
</linearGradient>
<linearGradient id="paint39_linear_2008_1273" x1="598.662" y1="4474.81" x2="1469.14" y2="4807.6" gradientUnits="userSpaceOnUse">
<stop stop-color="#8593E8"/>
<stop offset="1" stop-color="#6F9DF5"/>
</linearGradient>
<linearGradient id="paint40_linear_2008_1273" x1="586.55" y1="4455.83" x2="1427.19" y2="4828.08" gradientUnits="userSpaceOnUse">
<stop stop-color="#8593E8"/>
<stop offset="1" stop-color="#6F9DF5"/>
</linearGradient>
<linearGradient id="paint41_linear_2008_1273" x1="575.284" y1="4437.94" x2="1384.41" y2="4847.51" gradientUnits="userSpaceOnUse">
<stop stop-color="#8593E8"/>
<stop offset="1" stop-color="#6F9DF5"/>
</linearGradient>
<linearGradient id="paint42_linear_2008_1273" x1="564.791" y1="4421.18" x2="1340.85" y2="4865.87" gradientUnits="userSpaceOnUse">
<stop stop-color="#8593E8"/>
<stop offset="1" stop-color="#6F9DF5"/>
</linearGradient>
<linearGradient id="paint43_linear_2008_1273" x1="554.995" y1="4405.57" x2="1296.57" y2="4883.13" gradientUnits="userSpaceOnUse">
<stop stop-color="#8593E8"/>
<stop offset="1" stop-color="#6F9DF5"/>
</linearGradient>
<linearGradient id="paint44_linear_2008_1273" x1="545.824" y1="4391.15" x2="1251.64" y2="4899.26" gradientUnits="userSpaceOnUse">
<stop stop-color="#8593E8"/>
<stop offset="1" stop-color="#6F9DF5"/>
</linearGradient>
<linearGradient id="paint45_linear_2008_1273" x1="537.2" y1="4377.94" x2="1206.11" y2="4914.25" gradientUnits="userSpaceOnUse">
<stop stop-color="#8593E8"/>
<stop offset="1" stop-color="#6F9DF5"/>
</linearGradient>
<linearGradient id="paint46_linear_2008_1273" x1="529.046" y1="4365.95" x2="1160.04" y2="4928.08" gradientUnits="userSpaceOnUse">
<stop stop-color="#8593E8"/>
<stop offset="1" stop-color="#6F9DF5"/>
</linearGradient>
<linearGradient id="paint47_linear_2008_1273" x1="521.288" y1="4355.19" x2="1113.49" y2="4940.72" gradientUnits="userSpaceOnUse">
<stop stop-color="#8593E8"/>
<stop offset="1" stop-color="#6F9DF5"/>
</linearGradient>
<linearGradient id="paint48_linear_2008_1273" x1="513.848" y1="4345.68" x2="1066.54" y2="4952.17" gradientUnits="userSpaceOnUse">
<stop stop-color="#8593E8"/>
<stop offset="1" stop-color="#6F9DF5"/>
</linearGradient>
<linearGradient id="paint49_linear_2008_1273" x1="506.649" y1="4337.41" x2="1019.23" y2="4962.39" gradientUnits="userSpaceOnUse">
<stop stop-color="#8593E8"/>
<stop offset="1" stop-color="#6F9DF5"/>
</linearGradient>
<linearGradient id="paint50_linear_2008_1273" x1="499.618" y1="4330.38" x2="971.647" y2="4971.39" gradientUnits="userSpaceOnUse">
<stop stop-color="#8593E8"/>
<stop offset="1" stop-color="#6F9DF5"/>
</linearGradient>
<linearGradient id="paint51_linear_2008_1273" x1="492.678" y1="4324.6" x2="923.85" y2="4979.16" gradientUnits="userSpaceOnUse">
<stop stop-color="#8593E8"/>
<stop offset="1" stop-color="#6F9DF5"/>
</linearGradient>
<linearGradient id="paint52_linear_2008_1273" x1="485.758" y1="4320.04" x2="875.91" y2="4985.68" gradientUnits="userSpaceOnUse">
<stop stop-color="#8593E8"/>
<stop offset="1" stop-color="#6F9DF5"/>
</linearGradient>
<linearGradient id="paint53_linear_2008_1273" x1="478.784" y1="4316.69" x2="827.9" y2="4990.95" gradientUnits="userSpaceOnUse">
<stop stop-color="#8593E8"/>
<stop offset="1" stop-color="#6F9DF5"/>
</linearGradient>
<linearGradient id="paint54_linear_2008_1273" x1="471.687" y1="4314.54" x2="779.892" y2="4994.97" gradientUnits="userSpaceOnUse">
<stop stop-color="#8593E8"/>
<stop offset="1" stop-color="#6F9DF5"/>
</linearGradient>
<linearGradient id="paint55_linear_2008_1273" x1="464.398" y1="4313.56" x2="731.96" y2="4997.76" gradientUnits="userSpaceOnUse">
<stop stop-color="#8593E8"/>
<stop offset="1" stop-color="#6F9DF5"/>
</linearGradient>
<linearGradient id="paint56_linear_2008_1273" x1="456.852" y1="4313.72" x2="684.181" y2="4999.31" gradientUnits="userSpaceOnUse">
<stop stop-color="#8593E8"/>
<stop offset="1" stop-color="#6F9DF5"/>
</linearGradient>
<linearGradient id="paint57_linear_2008_1273" x1="448.984" y1="4314.99" x2="636.629" y2="4999.65" gradientUnits="userSpaceOnUse">
<stop stop-color="#8593E8"/>
<stop offset="1" stop-color="#6F9DF5"/>
</linearGradient>
<linearGradient id="paint58_linear_2008_1273" x1="440.733" y1="4317.34" x2="589.38" y2="4998.79" gradientUnits="userSpaceOnUse">
<stop stop-color="#8593E8"/>
<stop offset="1" stop-color="#6F9DF5"/>
</linearGradient>
<linearGradient id="paint59_linear_2008_1273" x1="432.041" y1="4320.72" x2="542.511" y2="4996.76" gradientUnits="userSpaceOnUse">
<stop stop-color="#8593E8"/>
<stop offset="1" stop-color="#6F9DF5"/>
</linearGradient>
<linearGradient id="paint60_linear_2008_1273" x1="422.851" y1="4325.11" x2="496.095" y2="4993.59" gradientUnits="userSpaceOnUse">
<stop stop-color="#8593E8"/>
<stop offset="1" stop-color="#6F9DF5"/>
</linearGradient>
<linearGradient id="paint61_linear_2008_1273" x1="413.112" y1="4330.45" x2="450.204" y2="4989.31" gradientUnits="userSpaceOnUse">
<stop stop-color="#8593E8"/>
<stop offset="1" stop-color="#6F9DF5"/>
</linearGradient>
<linearGradient id="paint62_linear_2008_1273" x1="402.775" y1="4336.7" x2="404.911" y2="4983.98" gradientUnits="userSpaceOnUse">
<stop stop-color="#8593E8"/>
<stop offset="1" stop-color="#6F9DF5"/>
</linearGradient>
<linearGradient id="paint63_linear_2008_1273" x1="391.792" y1="4343.8" x2="360.281" y2="4977.64" gradientUnits="userSpaceOnUse">
<stop stop-color="#8593E8"/>
<stop offset="1" stop-color="#6F9DF5"/>
</linearGradient>
<linearGradient id="paint64_linear_2008_1273" x1="380.123" y1="4351.71" x2="316.379" y2="4970.34" gradientUnits="userSpaceOnUse">
<stop stop-color="#8593E8"/>
<stop offset="1" stop-color="#6F9DF5"/>
</linearGradient>
<linearGradient id="paint65_linear_2008_1273" x1="367.728" y1="4360.37" x2="273.264" y2="4962.14" gradientUnits="userSpaceOnUse">
<stop stop-color="#8593E8"/>
<stop offset="1" stop-color="#6F9DF5"/>
</linearGradient>
<linearGradient id="paint66_linear_2008_1273" x1="354.573" y1="4369.73" x2="230.993" y2="4953.1" gradientUnits="userSpaceOnUse">
<stop stop-color="#8593E8"/>
<stop offset="1" stop-color="#6F9DF5"/>
</linearGradient>
<linearGradient id="paint67_linear_2008_1273" x1="340.626" y1="4379.72" x2="189.614" y2="4943.3" gradientUnits="userSpaceOnUse">
<stop stop-color="#8593E8"/>
<stop offset="1" stop-color="#6F9DF5"/>
</linearGradient>
<clipPath id="clip0_2008_1273">
<rect width="1728" height="5887" fill="white"/>
</clipPath>
</defs>
</svg>
