<svg width="296" height="75" viewBox="0 0 296 75" fill="none" xmlns="http://www.w3.org/2000/svg">
<path d="M68.4136 11.0216C68.3512 10.5678 68.1589 10.1423 67.8605 9.79752C67.5621 9.45272 67.1705 9.20358 66.7339 9.08075L38.142 1.04175C37.7344 0.927043 37.3035 0.927043 36.8959 1.04175L8.30399 9.08075C7.86737 9.20351 7.47576 9.45262 7.17733 9.79744C6.87889 10.1422 6.68665 10.5677 6.62425 11.0216C6.45841 12.2271 2.67519 40.7128 12.3789 54.8835C22.0711 69.0373 36.3693 72.6644 36.9731 72.812C37.3318 72.8998 37.7061 72.8998 38.0648 72.812C38.6689 72.6644 52.9671 69.0373 62.659 54.8835C72.3627 40.7131 68.5795 12.2275 68.4136 11.0216Z" fill="white"/>
<path d="M34.2497 23.8401C34.2497 22.0345 35.7134 20.5709 37.5189 20.5709C39.3244 20.5709 40.7881 22.0345 40.7881 23.8401V49.9936C40.7881 51.7991 39.3244 53.2628 37.5189 53.2628C35.7134 53.2628 34.2497 51.7991 34.2497 49.9936V23.8401Z" fill="url(#paint0_linear_2015_1328)"/>
<path d="M50.5957 33.6476C52.4012 33.6476 53.8649 35.1113 53.8649 36.9168C53.8649 38.7223 52.4012 40.186 50.5957 40.186L24.4422 40.186C22.6366 40.186 21.173 38.7223 21.173 36.9168C21.173 35.1113 22.6366 33.6476 24.4422 33.6476L50.5957 33.6476Z" fill="url(#paint1_linear_2015_1328)"/>
<path d="M113.996 32.4974C113.996 30.3001 114.487 28.3374 115.468 26.6094C116.471 24.8601 117.826 23.5054 119.532 22.5454C121.26 21.5641 123.191 21.0734 125.324 21.0734C127.82 21.0734 130.007 21.7134 131.884 22.9934C133.762 24.2734 135.074 26.0441 135.82 28.3054H130.668C130.156 27.2387 129.431 26.4387 128.492 25.9054C127.575 25.3721 126.508 25.1054 125.292 25.1054C123.991 25.1054 122.828 25.4147 121.804 26.0334C120.802 26.6307 120.012 27.4841 119.436 28.5934C118.882 29.7027 118.604 31.0041 118.604 32.4974C118.604 33.9694 118.882 35.2707 119.436 36.4014C120.012 37.5107 120.802 38.3747 121.804 38.9934C122.828 39.5907 123.991 39.8894 125.292 39.8894C126.508 39.8894 127.575 39.6227 128.492 39.0894C129.431 38.5347 130.156 37.7241 130.668 36.6574H135.82C135.074 38.9401 133.762 40.7214 131.884 42.0014C130.028 43.2601 127.842 43.8894 125.324 43.8894C123.191 43.8894 121.26 43.4094 119.532 42.4494C117.826 41.4681 116.471 40.1134 115.468 38.3854C114.487 36.6574 113.996 34.6947 113.996 32.4974ZM144.127 28.7214C144.703 27.7827 145.449 27.0467 146.367 26.5134C147.305 25.9801 148.372 25.7134 149.567 25.7134V30.4174H148.383C146.975 30.4174 145.908 30.7481 145.183 31.4094C144.479 32.0707 144.127 33.2227 144.127 34.8654V43.6974H139.647V25.9694H144.127V28.7214ZM169.544 25.9694L158.568 52.0814H153.8L157.64 43.2494L150.536 25.9694H155.56L160.136 38.3534L164.776 25.9694H169.544ZM177.175 29.6494V38.2254C177.175 38.8227 177.314 39.2601 177.591 39.5374C177.89 39.7934 178.381 39.9214 179.063 39.9214H181.143V43.6974H178.327C174.551 43.6974 172.663 41.8627 172.663 38.1934V29.6494H170.551V25.9694H172.663V21.5854H177.175V25.9694H181.143V29.6494H177.175ZM183.214 34.7694C183.214 32.9774 183.566 31.3881 184.27 30.0014C184.995 28.6147 185.966 27.5481 187.182 26.8014C188.419 26.0547 189.795 25.6814 191.31 25.6814C192.632 25.6814 193.784 25.9481 194.766 26.4814C195.768 27.0147 196.568 27.6867 197.166 28.4974V25.9694H201.678V43.6974H197.166V41.1054C196.59 41.9374 195.79 42.6307 194.766 43.1854C193.763 43.7187 192.6 43.9854 191.278 43.9854C189.784 43.9854 188.419 43.6014 187.182 42.8334C185.966 42.0654 184.995 40.9881 184.27 39.6014C183.566 38.1934 183.214 36.5827 183.214 34.7694ZM197.166 34.8334C197.166 33.7454 196.952 32.8174 196.526 32.0494C196.099 31.2601 195.523 30.6627 194.798 30.2574C194.072 29.8307 193.294 29.6174 192.462 29.6174C191.63 29.6174 190.862 29.8201 190.158 30.2254C189.454 30.6307 188.878 31.2281 188.43 32.0174C188.003 32.7854 187.79 33.7027 187.79 34.7694C187.79 35.8361 188.003 36.7747 188.43 37.5854C188.878 38.3747 189.454 38.9827 190.158 39.4094C190.883 39.8361 191.651 40.0494 192.462 40.0494C193.294 40.0494 194.072 39.8467 194.798 39.4414C195.523 39.0147 196.099 38.4174 196.526 37.6494C196.952 36.8601 197.166 35.9214 197.166 34.8334ZM226.117 21.3614L217.925 43.6974H212.485L204.293 21.3614H209.093L215.237 39.1214L221.349 21.3614H226.117ZM231.075 23.8574C230.286 23.8574 229.624 23.6121 229.091 23.1214C228.579 22.6094 228.323 21.9801 228.323 21.2334C228.323 20.4867 228.579 19.8681 229.091 19.3774C229.624 18.8654 230.286 18.6094 231.075 18.6094C231.864 18.6094 232.515 18.8654 233.027 19.3774C233.56 19.8681 233.827 20.4867 233.827 21.2334C233.827 21.9801 233.56 22.6094 233.027 23.1214C232.515 23.6121 231.864 23.8574 231.075 23.8574ZM233.283 25.9694V43.6974H228.803V25.9694H233.283ZM242.925 29.6494V38.2254C242.925 38.8227 243.064 39.2601 243.341 39.5374C243.64 39.7934 244.131 39.9214 244.813 39.9214H246.893V43.6974H244.077C240.301 43.6974 238.413 41.8627 238.413 38.1934V29.6494H236.301V25.9694H238.413V21.5854H242.925V25.9694H246.893V29.6494H242.925ZM248.964 34.7694C248.964 32.9774 249.316 31.3881 250.02 30.0014C250.745 28.6147 251.716 27.5481 252.932 26.8014C254.169 26.0547 255.545 25.6814 257.06 25.6814C258.382 25.6814 259.534 25.9481 260.516 26.4814C261.518 27.0147 262.318 27.6867 262.916 28.4974V25.9694H267.428V43.6974H262.916V41.1054C262.34 41.9374 261.54 42.6307 260.516 43.1854C259.513 43.7187 258.35 43.9854 257.028 43.9854C255.534 43.9854 254.169 43.6014 252.932 42.8334C251.716 42.0654 250.745 40.9881 250.02 39.6014C249.316 38.1934 248.964 36.5827 248.964 34.7694ZM262.916 34.8334C262.916 33.7454 262.702 32.8174 262.276 32.0494C261.849 31.2601 261.273 30.6627 260.548 30.2574C259.822 29.8307 259.044 29.6174 258.212 29.6174C257.38 29.6174 256.612 29.8201 255.908 30.2254C255.204 30.6307 254.628 31.2281 254.18 32.0174C253.753 32.7854 253.54 33.7027 253.54 34.7694C253.54 35.8361 253.753 36.7747 254.18 37.5854C254.628 38.3747 255.204 38.9827 255.908 39.4094C256.633 39.8361 257.401 40.0494 258.212 40.0494C259.044 40.0494 259.822 39.8467 260.548 39.4414C261.273 39.0147 261.849 38.4174 262.276 37.6494C262.702 36.8601 262.916 35.9214 262.916 34.8334ZM277.595 20.9774L277.083 36.4334H273.307L272.763 20.9774H277.595ZM275.291 43.9214C274.48 43.9214 273.808 43.6761 273.275 43.1854C272.763 42.6734 272.507 42.0441 272.507 41.2974C272.507 40.5507 272.763 39.9321 273.275 39.4414C273.808 38.9294 274.48 38.6734 275.291 38.6734C276.08 38.6734 276.731 38.9294 277.243 39.4414C277.755 39.9321 278.011 40.5507 278.011 41.2974C278.011 42.0441 277.755 42.6734 277.243 43.1854C276.731 43.6761 276.08 43.9214 275.291 43.9214Z" fill="url(#paint2_linear_2015_1328)"/>
<defs>
<linearGradient id="paint0_linear_2015_1328" x1="53.8649" y1="53.2628" x2="10.2933" y2="49.8911" gradientUnits="userSpaceOnUse">
<stop stop-color="#D94FD5"/>
<stop offset="1" stop-color="#022548"/>
</linearGradient>
<linearGradient id="paint1_linear_2015_1328" x1="53.8649" y1="53.2628" x2="10.2933" y2="49.8911" gradientUnits="userSpaceOnUse">
<stop stop-color="#D94FD5"/>
<stop offset="1" stop-color="#022548"/>
</linearGradient>
<linearGradient id="paint2_linear_2015_1328" x1="113.921" y1="43.2217" x2="196.635" y2="61.8753" gradientUnits="userSpaceOnUse">
<stop stop-color="#9900A7"/>
<stop offset="1" stop-color="white"/>
</linearGradient>
</defs>
</svg>
