<svg width="304" height="53" viewBox="0 0 304 53" fill="none" xmlns="http://www.w3.org/2000/svg">
<path d="M23.45 31.25H8.25L5.45 39H0.65L13.25 4.35H18.5L31.05 39H26.25L23.45 31.25ZM22.15 27.55L15.85 9.95L9.55 27.55H22.15ZM41.0914 4.15V39H36.5414V4.15H41.0914ZM97.5262 4.4V39H92.9762V13.2L81.4762 39H78.2762L66.7262 13.15V39H62.1762V4.4H67.0762L79.8762 33L92.6762 4.4H97.5262ZM103.543 25.2C103.543 22.4 104.109 19.95 105.243 17.85C106.376 15.7167 107.926 14.0667 109.893 12.9C111.893 11.7333 114.109 11.15 116.543 11.15C118.943 11.15 121.026 11.6667 122.793 12.7C124.559 13.7333 125.876 15.0333 126.743 16.6V11.6H131.343V39H126.743V33.9C125.843 35.5 124.493 36.8333 122.693 37.9C120.926 38.9333 118.859 39.45 116.493 39.45C114.059 39.45 111.859 38.85 109.893 37.65C107.926 36.45 106.376 34.7667 105.243 32.6C104.109 30.4333 103.543 27.9667 103.543 25.2ZM126.743 25.25C126.743 23.1833 126.326 21.3833 125.493 19.85C124.659 18.3167 123.526 17.15 122.093 16.35C120.693 15.5167 119.143 15.1 117.443 15.1C115.743 15.1 114.193 15.5 112.793 16.3C111.393 17.1 110.276 18.2667 109.443 19.8C108.609 21.3333 108.193 23.1333 108.193 25.2C108.193 27.3 108.609 29.1333 109.443 30.7C110.276 32.2333 111.393 33.4167 112.793 34.25C114.193 35.05 115.743 35.45 117.443 35.45C119.143 35.45 120.693 35.05 122.093 34.25C123.526 33.4167 124.659 32.2333 125.493 30.7C126.326 29.1333 126.743 27.3167 126.743 25.25ZM143.582 16.05C144.382 14.4833 145.515 13.2667 146.982 12.4C148.482 11.5333 150.298 11.1 152.432 11.1V15.8H151.232C146.132 15.8 143.582 18.5667 143.582 24.1V39H139.032V11.6H143.582V16.05ZM172.984 39L162.234 26.9V39H157.684V2H162.234V23.75L172.784 11.6H179.134L166.234 25.25L179.184 39H172.984ZM208.416 24.25C208.416 25.1167 208.366 26.0333 208.266 27H186.366C186.533 29.7 187.45 31.8167 189.116 33.35C190.816 34.85 192.866 35.6 195.266 35.6C197.233 35.6 198.866 35.15 200.166 34.25C201.5 33.3167 202.433 32.0833 202.966 30.55H207.866C207.133 33.1833 205.666 35.3333 203.466 37C201.266 38.6333 198.533 39.45 195.266 39.45C192.666 39.45 190.333 38.8667 188.266 37.7C186.233 36.5333 184.633 34.8833 183.466 32.75C182.3 30.5833 181.716 28.0833 181.716 25.25C181.716 22.4167 182.283 19.9333 183.416 17.8C184.55 15.6667 186.133 14.0333 188.166 12.9C190.233 11.7333 192.6 11.15 195.266 11.15C197.866 11.15 200.166 11.7167 202.166 12.85C204.166 13.9833 205.7 15.55 206.766 17.55C207.866 19.5167 208.416 21.75 208.416 24.25ZM203.716 23.3C203.716 21.5667 203.333 20.0833 202.566 18.85C201.8 17.5833 200.75 16.6333 199.416 16C198.116 15.3333 196.666 15 195.066 15C192.766 15 190.8 15.7333 189.166 17.2C187.566 18.6667 186.65 20.7 186.416 23.3H203.716ZM219.972 15.35V31.5C219.972 32.8333 220.256 33.7833 220.822 34.35C221.389 34.8833 222.372 35.15 223.772 35.15H227.122V39H223.022C220.489 39 218.589 38.4167 217.322 37.25C216.056 36.0833 215.422 34.1667 215.422 31.5V15.35H211.872V11.6H215.422V4.7H219.972V11.6H227.122V15.35H219.972ZM234.985 7.15C234.118 7.15 233.385 6.85 232.785 6.25C232.185 5.65 231.885 4.91666 231.885 4.05C231.885 3.18333 232.185 2.45 232.785 1.85C233.385 1.25 234.118 0.949998 234.985 0.949998C235.818 0.949998 236.518 1.25 237.085 1.85C237.685 2.45 237.985 3.18333 237.985 4.05C237.985 4.91666 237.685 5.65 237.085 6.25C236.518 6.85 235.818 7.15 234.985 7.15ZM237.185 11.6V39H232.635V11.6H237.185ZM258.29 11.1C261.623 11.1 264.323 12.1167 266.39 14.15C268.457 16.15 269.49 19.05 269.49 22.85V39H264.99V23.5C264.99 20.7667 264.307 18.6833 262.94 17.25C261.573 15.7833 259.707 15.05 257.34 15.05C254.94 15.05 253.023 15.8 251.59 17.3C250.19 18.8 249.49 20.9833 249.49 23.85V39H244.94V11.6H249.49V15.5C250.39 14.1 251.607 13.0167 253.14 12.25C254.707 11.4833 256.423 11.1 258.29 11.1ZM288.222 11.15C290.589 11.15 292.656 11.6667 294.422 12.7C296.222 13.7333 297.556 15.0333 298.422 16.6V11.6H303.022V39.6C303.022 42.1 302.489 44.3167 301.422 46.25C300.356 48.2167 298.822 49.75 296.822 50.85C294.856 51.95 292.556 52.5 289.922 52.5C286.322 52.5 283.322 51.65 280.922 49.95C278.522 48.25 277.106 45.9333 276.672 43H281.172C281.672 44.6667 282.706 46 284.272 47C285.839 48.0333 287.722 48.55 289.922 48.55C292.422 48.55 294.456 47.7667 296.022 46.2C297.622 44.6333 298.422 42.4333 298.422 39.6V33.85C297.522 35.45 296.189 36.7833 294.422 37.85C292.656 38.9167 290.589 39.45 288.222 39.45C285.789 39.45 283.572 38.85 281.572 37.65C279.606 36.45 278.056 34.7667 276.922 32.6C275.789 30.4333 275.222 27.9667 275.222 25.2C275.222 22.4 275.789 19.95 276.922 17.85C278.056 15.7167 279.606 14.0667 281.572 12.9C283.572 11.7333 285.789 11.15 288.222 11.15ZM298.422 25.25C298.422 23.1833 298.006 21.3833 297.172 19.85C296.339 18.3167 295.206 17.15 293.772 16.35C292.372 15.5167 290.822 15.1 289.122 15.1C287.422 15.1 285.872 15.5 284.472 16.3C283.072 17.1 281.956 18.2667 281.122 19.8C280.289 21.3333 279.872 23.1333 279.872 25.2C279.872 27.3 280.289 29.1333 281.122 30.7C281.956 32.2333 283.072 33.4167 284.472 34.25C285.872 35.05 287.422 35.45 289.122 35.45C290.822 35.45 292.372 35.05 293.772 34.25C295.206 33.4167 296.339 32.2333 297.172 30.7C298.006 29.1333 298.422 27.3167 298.422 25.25Z" fill="url(#paint0_linear_2008_1400)"/>
<defs>
<linearGradient id="paint0_linear_2008_1400" x1="-1" y1="21.5" x2="307" y2="21.5" gradientUnits="userSpaceOnUse">
<stop stop-color="#FF3BFF"/>
<stop offset="0.380208" stop-color="#ECBFBF"/>
<stop offset="0.758263" stop-color="#5C24FF"/>
<stop offset="1" stop-color="#D94FD5"/>
</linearGradient>
</defs>
</svg>
