<svg width="895" height="83" viewBox="0 0 895 83" fill="none" xmlns="http://www.w3.org/2000/svg">
<path d="M38.48 6.24V12.16H23.28V62H16V12.16H0.72V6.24H38.48ZM69.2013 17.36C72.5079 17.36 75.4946 18.08 78.1613 19.52C80.8279 20.9067 82.9079 23.0133 84.4013 25.84C85.9479 28.6667 86.7213 32.1067 86.7213 36.16V62H79.5213V37.2C79.5213 32.8267 78.4279 29.4933 76.2413 27.2C74.0546 24.8533 71.0679 23.68 67.2813 23.68C63.4413 23.68 60.3746 24.88 58.0813 27.28C55.8413 29.68 54.7213 33.1733 54.7213 37.76V62H47.4413V2.8H54.7213V24.4C56.1613 22.16 58.1346 20.4267 60.6413 19.2C63.2013 17.9733 66.0546 17.36 69.2013 17.36ZM138.613 38.4C138.613 39.7867 138.533 41.2533 138.373 42.8H103.333C103.6 47.12 105.066 50.5067 107.733 52.96C110.453 55.36 113.733 56.56 117.573 56.56C120.72 56.56 123.333 55.84 125.413 54.4C127.546 52.9067 129.04 50.9333 129.893 48.48H137.733C136.56 52.6933 134.213 56.1333 130.693 58.8C127.173 61.4133 122.8 62.72 117.573 62.72C113.413 62.72 109.68 61.7867 106.373 59.92C103.12 58.0533 100.56 55.4133 98.6931 52C96.8265 48.5333 95.8931 44.5333 95.8931 40C95.8931 35.4667 96.7998 31.4933 98.6131 28.08C100.426 24.6667 102.96 22.0533 106.213 20.24C109.52 18.3733 113.306 17.44 117.573 17.44C121.733 17.44 125.413 18.3467 128.613 20.16C131.813 21.9733 134.266 24.48 135.973 27.68C137.733 30.8267 138.613 34.4 138.613 38.4ZM131.093 36.88C131.093 34.1067 130.48 31.7333 129.253 29.76C128.026 27.7333 126.346 26.2133 124.213 25.2C122.133 24.1333 119.813 23.6 117.253 23.6C113.573 23.6 110.426 24.7733 107.813 27.12C105.253 29.4667 103.786 32.72 103.413 36.88H131.093ZM187.391 24.16H178.191V62H170.911V24.16H165.231V18.16H170.911V15.04C170.911 10.1333 172.164 6.56 174.671 4.32C177.231 2.02666 181.311 0.879995 186.911 0.879995V6.96C183.711 6.96 181.444 7.6 180.111 8.88C178.831 10.1067 178.191 12.16 178.191 15.04V18.16H187.391V24.16ZM193.159 39.92C193.159 35.44 194.065 31.52 195.879 28.16C197.692 24.7467 200.172 22.1067 203.319 20.24C206.519 18.3733 210.065 17.44 213.959 17.44C217.799 17.44 221.132 18.2667 223.959 19.92C226.785 21.5733 228.892 23.6533 230.279 26.16V18.16H237.639V62H230.279V53.84C228.839 56.4 226.679 58.5333 223.799 60.24C220.972 61.8933 217.665 62.72 213.879 62.72C209.985 62.72 206.465 61.76 203.319 59.84C200.172 57.92 197.692 55.2267 195.879 51.76C194.065 48.2933 193.159 44.3467 193.159 39.92ZM230.279 40C230.279 36.6933 229.612 33.8133 228.279 31.36C226.945 28.9067 225.132 27.04 222.839 25.76C220.599 24.4267 218.119 23.76 215.399 23.76C212.679 23.76 210.199 24.4 207.959 25.68C205.719 26.96 203.932 28.8267 202.599 31.28C201.265 33.7333 200.599 36.6133 200.599 39.92C200.599 43.28 201.265 46.2133 202.599 48.72C203.932 51.1733 205.719 53.0667 207.959 54.4C210.199 55.68 212.679 56.32 215.399 56.32C218.119 56.32 220.599 55.68 222.839 54.4C225.132 53.0667 226.945 51.1733 228.279 48.72C229.612 46.2133 230.279 43.3067 230.279 40ZM265.461 62.72C262.101 62.72 259.088 62.16 256.421 61.04C253.755 59.8667 251.648 58.2667 250.101 56.24C248.555 54.16 247.701 51.7867 247.541 49.12H255.061C255.275 51.3067 256.288 53.0933 258.101 54.48C259.968 55.8667 262.395 56.56 265.381 56.56C268.155 56.56 270.341 55.9467 271.941 54.72C273.541 53.4933 274.341 51.9467 274.341 50.08C274.341 48.16 273.488 46.7467 271.781 45.84C270.075 44.88 267.435 43.9467 263.861 43.04C260.608 42.1867 257.941 41.3333 255.861 40.48C253.835 39.5733 252.075 38.2667 250.581 36.56C249.141 34.8 248.421 32.5067 248.421 29.68C248.421 27.44 249.088 25.3867 250.421 23.52C251.755 21.6533 253.648 20.1867 256.101 19.12C258.555 18 261.355 17.44 264.501 17.44C269.355 17.44 273.275 18.6667 276.261 21.12C279.248 23.5733 280.848 26.9333 281.061 31.2H273.781C273.621 28.9067 272.688 27.0667 270.981 25.68C269.328 24.2933 267.088 23.6 264.261 23.6C261.648 23.6 259.568 24.16 258.021 25.28C256.475 26.4 255.701 27.8667 255.701 29.68C255.701 31.12 256.155 32.32 257.061 33.28C258.021 34.1867 259.195 34.9333 260.581 35.52C262.021 36.0533 263.995 36.6667 266.501 37.36C269.648 38.2133 272.208 39.0667 274.181 39.92C276.155 40.72 277.835 41.9467 279.221 43.6C280.661 45.2533 281.408 47.4133 281.461 50.08C281.461 52.48 280.795 54.64 279.461 56.56C278.128 58.48 276.235 60 273.781 61.12C271.381 62.1867 268.608 62.72 265.461 62.72ZM300.618 24.16V50C300.618 52.1333 301.071 53.6533 301.978 54.56C302.885 55.4133 304.458 55.84 306.698 55.84H312.058V62H305.498C301.445 62 298.405 61.0667 296.378 59.2C294.351 57.3333 293.338 54.2667 293.338 50V24.16H287.658V18.16H293.338V7.12H300.618V18.16H312.058V24.16H300.618ZM360.879 38.4C360.879 39.7867 360.799 41.2533 360.639 42.8H325.599C325.865 47.12 327.332 50.5067 329.999 52.96C332.719 55.36 335.999 56.56 339.839 56.56C342.985 56.56 345.599 55.84 347.679 54.4C349.812 52.9067 351.305 50.9333 352.159 48.48H359.999C358.825 52.6933 356.479 56.1333 352.959 58.8C349.439 61.4133 345.065 62.72 339.839 62.72C335.679 62.72 331.945 61.7867 328.639 59.92C325.385 58.0533 322.825 55.4133 320.959 52C319.092 48.5333 318.159 44.5333 318.159 40C318.159 35.4667 319.065 31.4933 320.879 28.08C322.692 24.6667 325.225 22.0533 328.479 20.24C331.785 18.3733 335.572 17.44 339.839 17.44C343.999 17.44 347.679 18.3467 350.879 20.16C354.079 21.9733 356.532 24.48 358.239 27.68C359.999 30.8267 360.879 34.4 360.879 38.4ZM353.359 36.88C353.359 34.1067 352.745 31.7333 351.519 29.76C350.292 27.7333 348.612 26.2133 346.479 25.2C344.399 24.1333 342.079 23.6 339.519 23.6C335.839 23.6 332.692 24.7733 330.079 27.12C327.519 29.4667 326.052 32.72 325.679 36.88H353.359ZM386.008 62.72C382.648 62.72 379.635 62.16 376.968 61.04C374.301 59.8667 372.195 58.2667 370.648 56.24C369.101 54.16 368.248 51.7867 368.088 49.12H375.608C375.821 51.3067 376.835 53.0933 378.648 54.48C380.515 55.8667 382.941 56.56 385.928 56.56C388.701 56.56 390.888 55.9467 392.488 54.72C394.088 53.4933 394.888 51.9467 394.888 50.08C394.888 48.16 394.035 46.7467 392.328 45.84C390.621 44.88 387.981 43.9467 384.408 43.04C381.155 42.1867 378.488 41.3333 376.408 40.48C374.381 39.5733 372.621 38.2667 371.128 36.56C369.688 34.8 368.968 32.5067 368.968 29.68C368.968 27.44 369.635 25.3867 370.968 23.52C372.301 21.6533 374.195 20.1867 376.648 19.12C379.101 18 381.901 17.44 385.048 17.44C389.901 17.44 393.821 18.6667 396.808 21.12C399.795 23.5733 401.395 26.9333 401.608 31.2H394.328C394.168 28.9067 393.235 27.0667 391.528 25.68C389.875 24.2933 387.635 23.6 384.808 23.6C382.195 23.6 380.115 24.16 378.568 25.28C377.021 26.4 376.248 27.8667 376.248 29.68C376.248 31.12 376.701 32.32 377.608 33.28C378.568 34.1867 379.741 34.9333 381.128 35.52C382.568 36.0533 384.541 36.6667 387.048 37.36C390.195 38.2133 392.755 39.0667 394.728 39.92C396.701 40.72 398.381 41.9467 399.768 43.6C401.208 45.2533 401.955 47.4133 402.008 50.08C402.008 52.48 401.341 54.64 400.008 56.56C398.675 58.48 396.781 60 394.328 61.12C391.928 62.1867 389.155 62.72 386.008 62.72ZM421.165 24.16V50C421.165 52.1333 421.618 53.6533 422.525 54.56C423.432 55.4133 425.005 55.84 427.245 55.84H432.605V62H426.045C421.992 62 418.952 61.0667 416.925 59.2C414.898 57.3333 413.885 54.2667 413.885 50V24.16H408.205V18.16H413.885V7.12H421.165V18.16H432.605V24.16H421.165ZM495.714 49.6H471.394L466.914 62H459.234L479.394 6.56H487.794L507.874 62H500.194L495.714 49.6ZM493.634 43.68L483.554 15.52L473.474 43.68H493.634ZM523.94 6.24V62H516.66V6.24H523.94ZM554.956 34.08C554.956 28.64 556.182 23.76 558.636 19.44C561.089 15.0667 564.422 11.6533 568.636 9.2C572.902 6.74666 577.622 5.52 582.796 5.52C588.876 5.52 594.182 6.98666 598.716 9.92C603.249 12.8533 606.556 17.0133 608.636 22.4H599.916C598.369 19.04 596.129 16.4533 593.196 14.64C590.316 12.8267 586.849 11.92 582.796 11.92C578.902 11.92 575.409 12.8267 572.316 14.64C569.222 16.4533 566.796 19.04 565.036 22.4C563.276 25.7067 562.396 29.6 562.396 34.08C562.396 38.5067 563.276 42.4 565.036 45.76C566.796 49.0667 569.222 51.6267 572.316 53.44C575.409 55.2533 578.902 56.16 582.796 56.16C586.849 56.16 590.316 55.28 593.196 53.52C596.129 51.7067 598.369 49.12 599.916 45.76H608.636C606.556 51.0933 603.249 55.2267 598.716 58.16C594.182 61.04 588.876 62.48 582.796 62.48C577.622 62.48 572.902 61.28 568.636 58.88C564.422 56.4267 561.089 53.04 558.636 48.72C556.182 44.4 554.956 39.52 554.956 34.08ZM626.753 25.28C628.033 22.7733 629.846 20.8267 632.193 19.44C634.593 18.0533 637.499 17.36 640.913 17.36V24.88H638.993C630.833 24.88 626.753 29.3067 626.753 38.16V62H619.473V18.16H626.753V25.28ZM687.076 18.16L660.676 82.64H653.156L661.796 61.52L644.116 18.16H652.196L665.956 53.68L679.556 18.16H687.076ZM701.674 26.24C703.114 23.7333 705.248 21.6533 708.074 20C710.954 18.2933 714.288 17.44 718.074 17.44C721.968 17.44 725.488 18.3733 728.634 20.24C731.834 22.1067 734.341 24.7467 736.154 28.16C737.968 31.52 738.874 35.44 738.874 39.92C738.874 44.3467 737.968 48.2933 736.154 51.76C734.341 55.2267 731.834 57.92 728.634 59.84C725.488 61.76 721.968 62.72 718.074 62.72C714.341 62.72 711.034 61.8933 708.154 60.24C705.328 58.5333 703.168 56.4267 701.674 53.92V82.8H694.394V18.16H701.674V26.24ZM731.434 39.92C731.434 36.6133 730.768 33.7333 729.434 31.28C728.101 28.8267 726.288 26.96 723.994 25.68C721.754 24.4 719.274 23.76 716.554 23.76C713.888 23.76 711.408 24.4267 709.114 25.76C706.874 27.04 705.061 28.9333 703.674 31.44C702.341 33.8933 701.674 36.7467 701.674 40C701.674 43.3067 702.341 46.2133 703.674 48.72C705.061 51.1733 706.874 53.0667 709.114 54.4C711.408 55.68 713.888 56.32 716.554 56.32C719.274 56.32 721.754 55.68 723.994 54.4C726.288 53.0667 728.101 51.1733 729.434 48.72C730.768 46.2133 731.434 43.28 731.434 39.92ZM757.337 24.16V50C757.337 52.1333 757.79 53.6533 758.697 54.56C759.604 55.4133 761.177 55.84 763.417 55.84H768.777V62H762.217C758.164 62 755.124 61.0667 753.097 59.2C751.07 57.3333 750.057 54.2667 750.057 50V24.16H744.377V18.16H750.057V7.12H757.337V18.16H768.777V24.16H757.337ZM774.878 39.92C774.878 35.44 775.784 31.52 777.598 28.16C779.411 24.7467 781.891 22.1067 785.038 20.24C788.238 18.3733 791.784 17.44 795.678 17.44C799.518 17.44 802.851 18.2667 805.678 19.92C808.504 21.5733 810.611 23.6533 811.998 26.16V18.16H819.358V62H811.998V53.84C810.558 56.4 808.398 58.5333 805.518 60.24C802.691 61.8933 799.384 62.72 795.598 62.72C791.704 62.72 788.184 61.76 785.038 59.84C781.891 57.92 779.411 55.2267 777.598 51.76C775.784 48.2933 774.878 44.3467 774.878 39.92ZM811.998 40C811.998 36.6933 811.331 33.8133 809.998 31.36C808.664 28.9067 806.851 27.04 804.558 25.76C802.318 24.4267 799.838 23.76 797.118 23.76C794.398 23.76 791.918 24.4 789.678 25.68C787.438 26.96 785.651 28.8267 784.318 31.28C782.984 33.7333 782.318 36.6133 782.318 39.92C782.318 43.28 782.984 46.2133 784.318 48.72C785.651 51.1733 787.438 53.0667 789.678 54.4C791.918 55.68 794.398 56.32 797.118 56.32C799.838 56.32 802.318 55.68 804.558 54.4C806.851 53.0667 808.664 51.1733 809.998 48.72C811.331 46.2133 811.998 43.3067 811.998 40ZM864.62 49.6H840.3L835.82 62H828.14L848.3 6.56H856.7L876.78 62H869.1L864.62 49.6ZM862.54 43.68L852.46 15.52L842.38 43.68H862.54ZM889.326 11.04C887.94 11.04 886.766 10.56 885.806 9.6C884.846 8.64 884.366 7.46666 884.366 6.08C884.366 4.69333 884.846 3.52 885.806 2.56C886.766 1.6 887.94 1.12 889.326 1.12C890.66 1.12 891.78 1.6 892.686 2.56C893.646 3.52 894.126 4.69333 894.126 6.08C894.126 7.46666 893.646 8.64 892.686 9.6C891.78 10.56 890.66 11.04 889.326 11.04ZM892.846 18.16V62H885.566V18.16H892.846Z" fill="url(#paint0_linear_1_19)"/>
<defs>
<linearGradient id="paint0_linear_1_19" x1="-2" y1="34" x2="900" y2="33.9999" gradientUnits="userSpaceOnUse">
<stop stop-color="#FF3BFF"/>
<stop offset="0.380208" stop-color="#ECBFBF"/>
<stop offset="0.758263" stop-color="#5C24FF"/>
<stop offset="1" stop-color="#D94FD5"/>
</linearGradient>
</defs>
</svg>
