<svg width="296" height="30" viewBox="0 0 296 30" fill="none" xmlns="http://www.w3.org/2000/svg">
<path d="M26.684 2.484L21.028 22H18.172L13.636 6.292L8.932 22L6.104 22.028L0.644 2.484H3.36L7.616 19.032L12.32 2.484H15.176L19.656 18.976L23.94 2.484H26.684ZM43.4724 13.74C43.4724 14.2253 43.4444 14.7387 43.3884 15.28H31.1244C31.2177 16.792 31.7311 17.9773 32.6644 18.836C33.6164 19.676 34.7644 20.096 36.1084 20.096C37.2097 20.096 38.1244 19.844 38.8524 19.34C39.5991 18.8173 40.1217 18.1267 40.4204 17.268H43.1644C42.7537 18.7427 41.9324 19.9467 40.7004 20.88C39.4684 21.7947 37.9377 22.252 36.1084 22.252C34.6524 22.252 33.3457 21.9253 32.1884 21.272C31.0497 20.6187 30.1537 19.6947 29.5004 18.5C28.8471 17.2867 28.5204 15.8867 28.5204 14.3C28.5204 12.7133 28.8377 11.3227 29.4724 10.128C30.1071 8.93333 30.9937 8.01867 32.1324 7.384C33.2897 6.73067 34.6151 6.404 36.1084 6.404C37.5644 6.404 38.8524 6.72133 39.9724 7.356C41.0924 7.99067 41.9511 8.868 42.5484 9.988C43.1644 11.0893 43.4724 12.34 43.4724 13.74ZM40.8404 13.208C40.8404 12.2373 40.6257 11.4067 40.1964 10.716C39.7671 10.0067 39.1791 9.47467 38.4324 9.12C37.7044 8.74667 36.8924 8.56 35.9964 8.56C34.7084 8.56 33.6071 8.97067 32.6924 9.792C31.7964 10.6133 31.2831 11.752 31.1524 13.208H40.8404ZM49.3837 1.28V22H46.8357V1.28H49.3837ZM52.7743 14.3C52.7743 12.7133 53.0916 11.332 53.7263 10.156C54.361 8.96133 55.2383 8.03733 56.3583 7.384C57.497 6.73067 58.7943 6.404 60.2503 6.404C62.1356 6.404 63.685 6.86133 64.8983 7.776C66.1303 8.69067 66.9423 9.96 67.3343 11.584H64.5903C64.329 10.6507 63.8156 9.91333 63.0503 9.372C62.3036 8.83067 61.3703 8.56 60.2503 8.56C58.7943 8.56 57.6183 9.064 56.7223 10.072C55.8263 11.0613 55.3783 12.4707 55.3783 14.3C55.3783 16.148 55.8263 17.576 56.7223 18.584C57.6183 19.592 58.7943 20.096 60.2503 20.096C61.3703 20.096 62.3036 19.8347 63.0503 19.312C63.797 18.7893 64.3103 18.0427 64.5903 17.072H67.3343C66.9236 18.64 66.1023 19.9 64.8703 20.852C63.6383 21.7853 62.0983 22.252 60.2503 22.252C58.7943 22.252 57.497 21.9253 56.3583 21.272C55.2383 20.6187 54.361 19.6947 53.7263 18.5C53.0916 17.3053 52.7743 15.9053 52.7743 14.3ZM77.4261 22.252C75.9888 22.252 74.6821 21.9253 73.5061 21.272C72.3488 20.6187 71.4341 19.6947 70.7621 18.5C70.1088 17.2867 69.7821 15.8867 69.7821 14.3C69.7821 12.732 70.1181 11.3507 70.7901 10.156C71.4808 8.94267 72.4141 8.01867 73.5901 7.384C74.7661 6.73067 76.0821 6.404 77.5381 6.404C78.9941 6.404 80.3101 6.73067 81.4861 7.384C82.6621 8.01867 83.5861 8.93333 84.2581 10.128C84.9488 11.3227 85.2941 12.7133 85.2941 14.3C85.2941 15.8867 84.9395 17.2867 84.2301 18.5C83.5395 19.6947 82.5968 20.6187 81.4021 21.272C80.2075 21.9253 78.8821 22.252 77.4261 22.252ZM77.4261 20.012C78.3408 20.012 79.1995 19.7973 80.0021 19.368C80.8048 18.9387 81.4488 18.2947 81.9341 17.436C82.4381 16.5773 82.6901 15.532 82.6901 14.3C82.6901 13.068 82.4475 12.0227 81.9621 11.164C81.4768 10.3053 80.8421 9.67067 80.0581 9.26C79.2741 8.83067 78.4248 8.616 77.5101 8.616C76.5768 8.616 75.7181 8.83067 74.9341 9.26C74.1688 9.67067 73.5528 10.3053 73.0861 11.164C72.6195 12.0227 72.3861 13.068 72.3861 14.3C72.3861 15.5507 72.6101 16.6053 73.0581 17.464C73.5248 18.3227 74.1408 18.9667 74.9061 19.396C75.6715 19.8067 76.5115 20.012 77.4261 20.012ZM107.096 6.376C108.291 6.376 109.355 6.628 110.288 7.132C111.222 7.61733 111.959 8.35467 112.5 9.344C113.042 10.3333 113.312 11.5373 113.312 12.956V22H110.792V13.32C110.792 11.7893 110.41 10.6227 109.644 9.82C108.898 8.99867 107.88 8.588 106.592 8.588C105.267 8.588 104.212 9.01733 103.428 9.876C102.644 10.716 102.252 11.9387 102.252 13.544V22H99.7323V13.32C99.7323 11.7893 99.3496 10.6227 98.5843 9.82C97.8376 8.99867 96.8203 8.588 95.5323 8.588C94.2069 8.588 93.1523 9.01733 92.3683 9.876C91.5843 10.716 91.1923 11.9387 91.1923 13.544V22H88.6443V6.656H91.1923V8.868C91.6963 8.06533 92.3683 7.44933 93.2083 7.02C94.0669 6.59067 95.0096 6.376 96.0363 6.376C97.3243 6.376 98.4629 6.66533 99.4523 7.244C100.442 7.82267 101.179 8.672 101.664 9.792C102.094 8.70933 102.803 7.86933 103.792 7.272C104.782 6.67467 105.883 6.376 107.096 6.376ZM131.492 13.74C131.492 14.2253 131.464 14.7387 131.408 15.28H119.144C119.237 16.792 119.751 17.9773 120.684 18.836C121.636 19.676 122.784 20.096 124.128 20.096C125.229 20.096 126.144 19.844 126.872 19.34C127.619 18.8173 128.141 18.1267 128.44 17.268H131.184C130.773 18.7427 129.952 19.9467 128.72 20.88C127.488 21.7947 125.957 22.252 124.128 22.252C122.672 22.252 121.365 21.9253 120.208 21.272C119.069 20.6187 118.173 19.6947 117.52 18.5C116.867 17.2867 116.54 15.8867 116.54 14.3C116.54 12.7133 116.857 11.3227 117.492 10.128C118.127 8.93333 119.013 8.01867 120.152 7.384C121.309 6.73067 122.635 6.404 124.128 6.404C125.584 6.404 126.872 6.72133 127.992 7.356C129.112 7.99067 129.971 8.868 130.568 9.988C131.184 11.0893 131.492 12.34 131.492 13.74ZM128.86 13.208C128.86 12.2373 128.645 11.4067 128.216 10.716C127.787 10.0067 127.199 9.47467 126.452 9.12C125.724 8.74667 124.912 8.56 124.016 8.56C122.728 8.56 121.627 8.97067 120.712 9.792C119.816 10.6133 119.303 11.752 119.172 13.208H128.86ZM145.428 8.756V17.8C145.428 18.5467 145.587 19.0787 145.904 19.396C146.221 19.6947 146.772 19.844 147.556 19.844H149.432V22H147.136C145.717 22 144.653 21.6733 143.944 21.02C143.235 20.3667 142.88 19.2933 142.88 17.8V8.756H140.892V6.656H142.88V2.792H145.428V6.656H149.432V8.756H145.428ZM159.211 22.252C157.774 22.252 156.467 21.9253 155.291 21.272C154.134 20.6187 153.219 19.6947 152.547 18.5C151.894 17.2867 151.567 15.8867 151.567 14.3C151.567 12.732 151.903 11.3507 152.575 10.156C153.266 8.94267 154.199 8.01867 155.375 7.384C156.551 6.73067 157.867 6.404 159.323 6.404C160.779 6.404 162.095 6.73067 163.271 7.384C164.447 8.01867 165.371 8.93333 166.043 10.128C166.734 11.3227 167.079 12.7133 167.079 14.3C167.079 15.8867 166.725 17.2867 166.015 18.5C165.325 19.6947 164.382 20.6187 163.187 21.272C161.993 21.9253 160.667 22.252 159.211 22.252ZM159.211 20.012C160.126 20.012 160.985 19.7973 161.787 19.368C162.59 18.9387 163.234 18.2947 163.719 17.436C164.223 16.5773 164.475 15.532 164.475 14.3C164.475 13.068 164.233 12.0227 163.747 11.164C163.262 10.3053 162.627 9.67067 161.843 9.26C161.059 8.83067 160.21 8.616 159.295 8.616C158.362 8.616 157.503 8.83067 156.719 9.26C155.954 9.67067 155.338 10.3053 154.871 11.164C154.405 12.0227 154.171 13.068 154.171 14.3C154.171 15.5507 154.395 16.6053 154.843 17.464C155.31 18.3227 155.926 18.9667 156.691 19.396C157.457 19.8067 158.297 20.012 159.211 20.012ZM176.942 12.228C176.942 10.324 177.372 8.616 178.23 7.104C179.089 5.57333 180.256 4.37867 181.73 3.52C183.224 2.66133 184.876 2.232 186.686 2.232C188.814 2.232 190.672 2.74533 192.258 3.772C193.845 4.79867 195.002 6.25467 195.73 8.14H192.678C192.137 6.964 191.353 6.05867 190.326 5.424C189.318 4.78933 188.105 4.472 186.686 4.472C185.324 4.472 184.101 4.78933 183.018 5.424C181.936 6.05867 181.086 6.964 180.47 8.14C179.854 9.29733 179.546 10.66 179.546 12.228C179.546 13.7773 179.854 15.14 180.47 16.316C181.086 17.4733 181.936 18.3693 183.018 19.004C184.101 19.6387 185.324 19.956 186.686 19.956C188.105 19.956 189.318 19.648 190.326 19.032C191.353 18.3973 192.137 17.492 192.678 16.316H195.73C195.002 18.1827 193.845 19.6293 192.258 20.656C190.672 21.664 188.814 22.168 186.686 22.168C184.876 22.168 183.224 21.748 181.73 20.908C180.256 20.0493 179.089 18.864 178.23 17.352C177.372 15.84 176.942 14.132 176.942 12.228ZM202.071 9.148C202.519 8.27067 203.154 7.58933 203.975 7.104C204.815 6.61867 205.833 6.376 207.027 6.376V9.008H206.355C203.499 9.008 202.071 10.5573 202.071 13.656V22H199.523V6.656H202.071V9.148ZM223.185 6.656L213.945 29.224H211.312L214.337 21.832L208.149 6.656H210.977L215.793 19.088L220.553 6.656H223.185ZM228.294 9.484C228.798 8.60667 229.545 7.87867 230.534 7.3C231.542 6.70267 232.709 6.404 234.034 6.404C235.397 6.404 236.629 6.73067 237.73 7.384C238.85 8.03733 239.727 8.96133 240.362 10.156C240.997 11.332 241.314 12.704 241.314 14.272C241.314 15.8213 240.997 17.2027 240.362 18.416C239.727 19.6293 238.85 20.572 237.73 21.244C236.629 21.916 235.397 22.252 234.034 22.252C232.727 22.252 231.57 21.9627 230.562 21.384C229.573 20.7867 228.817 20.0493 228.294 19.172V29.28H225.746V6.656H228.294V9.484ZM238.71 14.272C238.71 13.1147 238.477 12.1067 238.01 11.248C237.543 10.3893 236.909 9.736 236.106 9.288C235.322 8.84 234.454 8.616 233.502 8.616C232.569 8.616 231.701 8.84933 230.898 9.316C230.114 9.764 229.479 10.4267 228.994 11.304C228.527 12.1627 228.294 13.1613 228.294 14.3C228.294 15.4573 228.527 16.4747 228.994 17.352C229.479 18.2107 230.114 18.8733 230.898 19.34C231.701 19.788 232.569 20.012 233.502 20.012C234.454 20.012 235.322 19.788 236.106 19.34C236.909 18.8733 237.543 18.2107 238.01 17.352C238.477 16.4747 238.71 15.448 238.71 14.272ZM247.776 8.756V17.8C247.776 18.5467 247.934 19.0787 248.252 19.396C248.569 19.6947 249.12 19.844 249.904 19.844H251.78V22H249.484C248.065 22 247.001 21.6733 246.292 21.02C245.582 20.3667 245.228 19.2933 245.228 17.8V8.756H243.24V6.656H245.228V2.792H247.776V6.656H251.78V8.756H247.776ZM253.915 14.272C253.915 12.704 254.232 11.332 254.867 10.156C255.502 8.96133 256.37 8.03733 257.471 7.384C258.591 6.73067 259.832 6.404 261.195 6.404C262.539 6.404 263.706 6.69333 264.695 7.272C265.684 7.85067 266.422 8.57867 266.907 9.456V6.656H269.483V22H266.907V19.144C266.403 20.04 265.647 20.7867 264.639 21.384C263.65 21.9627 262.492 22.252 261.167 22.252C259.804 22.252 258.572 21.916 257.471 21.244C256.37 20.572 255.502 19.6293 254.867 18.416C254.232 17.2027 253.915 15.8213 253.915 14.272ZM266.907 14.3C266.907 13.1427 266.674 12.1347 266.207 11.276C265.74 10.4173 265.106 9.764 264.303 9.316C263.519 8.84933 262.651 8.616 261.699 8.616C260.747 8.616 259.879 8.84 259.095 9.288C258.311 9.736 257.686 10.3893 257.219 11.248C256.752 12.1067 256.519 13.1147 256.519 14.272C256.519 15.448 256.752 16.4747 257.219 17.352C257.686 18.2107 258.311 18.8733 259.095 19.34C259.879 19.788 260.747 20.012 261.699 20.012C262.651 20.012 263.519 19.788 264.303 19.34C265.106 18.8733 265.74 18.2107 266.207 17.352C266.674 16.4747 266.907 15.4573 266.907 14.3ZM285.325 17.66H276.813L275.245 22H272.557L279.613 2.596H282.553L289.581 22H286.893L285.325 17.66ZM284.597 15.588L281.069 5.732L277.541 15.588H284.597ZM293.972 4.164C293.487 4.164 293.076 3.996 292.74 3.66C292.404 3.324 292.236 2.91333 292.236 2.428C292.236 1.94267 292.404 1.532 292.74 1.196C293.076 0.859999 293.487 0.691999 293.972 0.691999C294.439 0.691999 294.831 0.859999 295.148 1.196C295.484 1.532 295.652 1.94267 295.652 2.428C295.652 2.91333 295.484 3.324 295.148 3.66C294.831 3.996 294.439 4.164 293.972 4.164ZM295.204 6.656V22H292.656V6.656H295.204Z" fill="url(#paint0_linear_7_1584)"/>
<defs>
<linearGradient id="paint0_linear_7_1584" x1="0" y1="12" x2="298" y2="12" gradientUnits="userSpaceOnUse">
<stop stop-color="#FF3BFF"/>
<stop offset="0.380208" stop-color="#ECBFBF"/>
<stop offset="0.758263" stop-color="#5C24FF"/>
<stop offset="1" stop-color="#D94FD5"/>
</linearGradient>
</defs>
</svg>
