<svg width="418" height="38" viewBox="0 0 418 38" fill="none" xmlns="http://www.w3.org/2000/svg">
<path d="M34.308 2.908L27.036 28H23.364L17.532 7.804L11.484 28L7.848 28.036L0.828 2.908H4.32L9.792 24.184L15.84 2.908H19.512L25.272 24.112L30.78 2.908H34.308ZM55.8931 17.38C55.8931 18.004 55.8571 18.664 55.7851 19.36H40.0171C40.1371 21.304 40.7971 22.828 41.9971 23.932C43.2211 25.012 44.6971 25.552 46.4251 25.552C47.8411 25.552 49.0171 25.228 49.9531 24.58C50.9131 23.908 51.5851 23.02 51.9691 21.916H55.4971C54.9691 23.812 53.9131 25.36 52.3291 26.56C50.7451 27.736 48.7771 28.324 46.4251 28.324C44.5531 28.324 42.8731 27.904 41.3851 27.064C39.9211 26.224 38.7691 25.036 37.9291 23.5C37.0891 21.94 36.6691 20.14 36.6691 18.1C36.6691 16.06 37.0771 14.272 37.8931 12.736C38.7091 11.2 39.8491 10.024 41.3131 9.208C42.8011 8.368 44.5051 7.948 46.4251 7.948C48.2971 7.948 49.9531 8.356 51.3931 9.172C52.8331 9.988 53.9371 11.116 54.7051 12.556C55.4971 13.972 55.8931 15.58 55.8931 17.38ZM52.5091 16.696C52.5091 15.448 52.2331 14.38 51.6811 13.492C51.1291 12.58 50.3731 11.896 49.4131 11.44C48.4771 10.96 47.4331 10.72 46.2811 10.72C44.6251 10.72 43.2091 11.248 42.0331 12.304C40.8811 13.36 40.2211 14.824 40.0531 16.696H52.5091ZM63.4933 1.36V28H60.2173V1.36H63.4933ZM67.8527 18.1C67.8527 16.06 68.2607 14.284 69.0767 12.772C69.8927 11.236 71.0207 10.048 72.4607 9.208C73.9247 8.368 75.5927 7.948 77.4647 7.948C79.8887 7.948 81.8807 8.536 83.4407 9.712C85.0247 10.888 86.0687 12.52 86.5727 14.608H83.0447C82.7087 13.408 82.0487 12.46 81.0647 11.764C80.1047 11.068 78.9047 10.72 77.4647 10.72C75.5927 10.72 74.0807 11.368 72.9287 12.664C71.7767 13.936 71.2007 15.748 71.2007 18.1C71.2007 20.476 71.7767 22.312 72.9287 23.608C74.0807 24.904 75.5927 25.552 77.4647 25.552C78.9047 25.552 80.1047 25.216 81.0647 24.544C82.0247 23.872 82.6847 22.912 83.0447 21.664H86.5727C86.0447 23.68 84.9887 25.3 83.4047 26.524C81.8207 27.724 79.8407 28.324 77.4647 28.324C75.5927 28.324 73.9247 27.904 72.4607 27.064C71.0207 26.224 69.8927 25.036 69.0767 23.5C68.2607 21.964 67.8527 20.164 67.8527 18.1ZM99.5479 28.324C97.6999 28.324 96.0199 27.904 94.5079 27.064C93.0199 26.224 91.8439 25.036 90.9799 23.5C90.1399 21.94 89.7199 20.14 89.7199 18.1C89.7199 16.084 90.1519 14.308 91.0159 12.772C91.9039 11.212 93.1039 10.024 94.6159 9.208C96.1279 8.368 97.8199 7.948 99.6919 7.948C101.564 7.948 103.256 8.368 104.768 9.208C106.28 10.024 107.468 11.2 108.332 12.736C109.22 14.272 109.664 16.06 109.664 18.1C109.664 20.14 109.208 21.94 108.296 23.5C107.408 25.036 106.196 26.224 104.66 27.064C103.124 27.904 101.42 28.324 99.5479 28.324ZM99.5479 25.444C100.724 25.444 101.828 25.168 102.86 24.616C103.892 24.064 104.72 23.236 105.344 22.132C105.992 21.028 106.316 19.684 106.316 18.1C106.316 16.516 106.004 15.172 105.38 14.068C104.756 12.964 103.94 12.148 102.932 11.62C101.924 11.068 100.832 10.792 99.6559 10.792C98.4559 10.792 97.3519 11.068 96.3439 11.62C95.3599 12.148 94.5679 12.964 93.9679 14.068C93.3679 15.172 93.0679 16.516 93.0679 18.1C93.0679 19.708 93.3559 21.064 93.9319 22.168C94.5319 23.272 95.3239 24.1 96.3079 24.652C97.2919 25.18 98.3719 25.444 99.5479 25.444ZM137.695 7.912C139.231 7.912 140.599 8.236 141.799 8.884C142.999 9.508 143.947 10.456 144.643 11.728C145.339 13 145.687 14.548 145.687 16.372V28H142.447V16.84C142.447 14.872 141.955 13.372 140.971 12.34C140.011 11.284 138.703 10.756 137.047 10.756C135.343 10.756 133.987 11.308 132.979 12.412C131.971 13.492 131.467 15.064 131.467 17.128V28H128.227V16.84C128.227 14.872 127.735 13.372 126.751 12.34C125.791 11.284 124.483 10.756 122.827 10.756C121.123 10.756 119.767 11.308 118.759 12.412C117.751 13.492 117.247 15.064 117.247 17.128V28H113.971V8.272H117.247V11.116C117.895 10.084 118.759 9.292 119.839 8.74C120.943 8.188 122.155 7.912 123.475 7.912C125.131 7.912 126.595 8.284 127.867 9.028C129.139 9.772 130.087 10.864 130.711 12.304C131.263 10.912 132.175 9.832 133.447 9.064C134.719 8.296 136.135 7.912 137.695 7.912ZM169.061 17.38C169.061 18.004 169.025 18.664 168.953 19.36H153.185C153.305 21.304 153.965 22.828 155.165 23.932C156.389 25.012 157.865 25.552 159.593 25.552C161.009 25.552 162.185 25.228 163.121 24.58C164.081 23.908 164.753 23.02 165.137 21.916H168.665C168.137 23.812 167.081 25.36 165.497 26.56C163.913 27.736 161.945 28.324 159.593 28.324C157.721 28.324 156.041 27.904 154.553 27.064C153.089 26.224 151.937 25.036 151.097 23.5C150.257 21.94 149.837 20.14 149.837 18.1C149.837 16.06 150.245 14.272 151.061 12.736C151.877 11.2 153.017 10.024 154.481 9.208C155.969 8.368 157.673 7.948 159.593 7.948C161.465 7.948 163.121 8.356 164.561 9.172C166.001 9.988 167.105 11.116 167.873 12.556C168.665 13.972 169.061 15.58 169.061 17.38ZM165.677 16.696C165.677 15.448 165.401 14.38 164.849 13.492C164.297 12.58 163.541 11.896 162.581 11.44C161.645 10.96 160.601 10.72 159.449 10.72C157.793 10.72 156.377 11.248 155.201 12.304C154.049 13.36 153.389 14.824 153.221 16.696H165.677ZM186.979 10.972V22.6C186.979 23.56 187.183 24.244 187.591 24.652C187.999 25.036 188.707 25.228 189.715 25.228H192.127V28H189.175C187.351 28 185.983 27.58 185.071 26.74C184.159 25.9 183.703 24.52 183.703 22.6V10.972H181.147V8.272H183.703V3.304H186.979V8.272H192.127V10.972H186.979ZM204.7 28.324C202.852 28.324 201.172 27.904 199.66 27.064C198.172 26.224 196.996 25.036 196.132 23.5C195.292 21.94 194.872 20.14 194.872 18.1C194.872 16.084 195.304 14.308 196.168 12.772C197.056 11.212 198.256 10.024 199.768 9.208C201.28 8.368 202.972 7.948 204.844 7.948C206.716 7.948 208.408 8.368 209.92 9.208C211.432 10.024 212.62 11.2 213.484 12.736C214.372 14.272 214.816 16.06 214.816 18.1C214.816 20.14 214.36 21.94 213.448 23.5C212.56 25.036 211.348 26.224 209.812 27.064C208.276 27.904 206.572 28.324 204.7 28.324ZM204.7 25.444C205.876 25.444 206.98 25.168 208.012 24.616C209.044 24.064 209.872 23.236 210.496 22.132C211.144 21.028 211.468 19.684 211.468 18.1C211.468 16.516 211.156 15.172 210.532 14.068C209.908 12.964 209.092 12.148 208.084 11.62C207.076 11.068 205.984 10.792 204.808 10.792C203.608 10.792 202.504 11.068 201.496 11.62C200.512 12.148 199.72 12.964 199.12 14.068C198.52 15.172 198.22 16.516 198.22 18.1C198.22 19.708 198.508 21.064 199.084 22.168C199.684 23.272 200.476 24.1 201.46 24.652C202.444 25.18 203.524 25.444 204.7 25.444ZM227.497 15.436C227.497 12.988 228.049 10.792 229.153 8.848C230.257 6.88 231.757 5.344 233.653 4.24C235.573 3.136 237.697 2.584 240.025 2.584C242.761 2.584 245.149 3.244 247.189 4.564C249.229 5.884 250.717 7.756 251.653 10.18H247.729C247.033 8.668 246.025 7.504 244.705 6.688C243.409 5.872 241.849 5.464 240.025 5.464C238.273 5.464 236.701 5.872 235.309 6.688C233.917 7.504 232.825 8.668 232.033 10.18C231.241 11.668 230.845 13.42 230.845 15.436C230.845 17.428 231.241 19.18 232.033 20.692C232.825 22.18 233.917 23.332 235.309 24.148C236.701 24.964 238.273 25.372 240.025 25.372C241.849 25.372 243.409 24.976 244.705 24.184C246.025 23.368 247.033 22.204 247.729 20.692H251.653C250.717 23.092 249.229 24.952 247.189 26.272C245.149 27.568 242.761 28.216 240.025 28.216C237.697 28.216 235.573 27.676 233.653 26.596C231.757 25.492 230.257 23.968 229.153 22.024C228.049 20.08 227.497 17.884 227.497 15.436ZM259.806 11.476C260.382 10.348 261.198 9.472 262.254 8.848C263.334 8.224 264.642 7.912 266.178 7.912V11.296H265.314C261.642 11.296 259.806 13.288 259.806 17.272V28H256.53V8.272H259.806V11.476ZM286.952 8.272L275.072 37.288H271.688L275.576 27.784L267.62 8.272H271.256L277.448 24.256L283.568 8.272H286.952ZM293.521 11.908C294.169 10.78 295.129 9.844 296.401 9.1C297.697 8.332 299.197 7.948 300.901 7.948C302.653 7.948 304.237 8.368 305.653 9.208C307.093 10.048 308.221 11.236 309.037 12.772C309.853 14.284 310.261 16.048 310.261 18.064C310.261 20.056 309.853 21.832 309.037 23.392C308.221 24.952 307.093 26.164 305.653 27.028C304.237 27.892 302.653 28.324 300.901 28.324C299.221 28.324 297.733 27.952 296.437 27.208C295.165 26.44 294.193 25.492 293.521 24.364V37.36H290.245V8.272H293.521V11.908ZM306.913 18.064C306.913 16.576 306.613 15.28 306.013 14.176C305.413 13.072 304.597 12.232 303.565 11.656C302.557 11.08 301.441 10.792 300.217 10.792C299.017 10.792 297.901 11.092 296.869 11.692C295.861 12.268 295.045 13.12 294.421 14.248C293.821 15.352 293.521 16.636 293.521 18.1C293.521 19.588 293.821 20.896 294.421 22.024C295.045 23.128 295.861 23.98 296.869 24.58C297.901 25.156 299.017 25.444 300.217 25.444C301.441 25.444 302.557 25.156 303.565 24.58C304.597 23.98 305.413 23.128 306.013 22.024C306.613 20.896 306.913 19.576 306.913 18.064ZM318.569 10.972V22.6C318.569 23.56 318.773 24.244 319.181 24.652C319.589 25.036 320.297 25.228 321.305 25.228H323.717V28H320.765C318.941 28 317.573 27.58 316.661 26.74C315.749 25.9 315.293 24.52 315.293 22.6V10.972H312.737V8.272H315.293V3.304H318.569V8.272H323.717V10.972H318.569ZM326.462 18.064C326.462 16.048 326.87 14.284 327.686 12.772C328.502 11.236 329.618 10.048 331.034 9.208C332.474 8.368 334.07 7.948 335.822 7.948C337.55 7.948 339.05 8.32 340.322 9.064C341.594 9.808 342.542 10.744 343.166 11.872V8.272H346.478V28H343.166V24.328C342.518 25.48 341.546 26.44 340.25 27.208C338.978 27.952 337.49 28.324 335.786 28.324C334.034 28.324 332.45 27.892 331.034 27.028C329.618 26.164 328.502 24.952 327.686 23.392C326.87 21.832 326.462 20.056 326.462 18.064ZM343.166 18.1C343.166 16.612 342.866 15.316 342.266 14.212C341.666 13.108 340.85 12.268 339.818 11.692C338.81 11.092 337.694 10.792 336.47 10.792C335.246 10.792 334.13 11.08 333.122 11.656C332.114 12.232 331.31 13.072 330.71 14.176C330.11 15.28 329.81 16.576 329.81 18.064C329.81 19.576 330.11 20.896 330.71 22.024C331.31 23.128 332.114 23.98 333.122 24.58C334.13 25.156 335.246 25.444 336.47 25.444C337.694 25.444 338.81 25.156 339.818 24.58C340.85 23.98 341.666 23.128 342.266 22.024C342.866 20.896 343.166 19.588 343.166 18.1ZM372.75 2.908L363.282 28H359.502L350.034 2.908H353.526L361.41 24.544L369.294 2.908H372.75ZM378.034 5.068C377.41 5.068 376.882 4.852 376.45 4.42C376.018 3.988 375.802 3.46 375.802 2.836C375.802 2.212 376.018 1.684 376.45 1.252C376.882 0.819999 377.41 0.603999 378.034 0.603999C378.634 0.603999 379.138 0.819999 379.546 1.252C379.978 1.684 380.194 2.212 380.194 2.836C380.194 3.46 379.978 3.988 379.546 4.42C379.138 4.852 378.634 5.068 378.034 5.068ZM379.618 8.272V28H376.342V8.272H379.618ZM389.198 10.972V22.6C389.198 23.56 389.402 24.244 389.81 24.652C390.218 25.036 390.926 25.228 391.934 25.228H394.346V28H391.394C389.57 28 388.202 27.58 387.29 26.74C386.378 25.9 385.922 24.52 385.922 22.6V10.972H383.366V8.272H385.922V3.304H389.198V8.272H394.346V10.972H389.198ZM397.091 18.064C397.091 16.048 397.499 14.284 398.315 12.772C399.131 11.236 400.247 10.048 401.663 9.208C403.103 8.368 404.699 7.948 406.451 7.948C408.179 7.948 409.679 8.32 410.951 9.064C412.223 9.808 413.171 10.744 413.795 11.872V8.272H417.107V28H413.795V24.328C413.147 25.48 412.175 26.44 410.879 27.208C409.607 27.952 408.119 28.324 406.415 28.324C404.663 28.324 403.079 27.892 401.663 27.028C400.247 26.164 399.131 24.952 398.315 23.392C397.499 21.832 397.091 20.056 397.091 18.064ZM413.795 18.1C413.795 16.612 413.495 15.316 412.895 14.212C412.295 13.108 411.479 12.268 410.447 11.692C409.439 11.092 408.323 10.792 407.099 10.792C405.875 10.792 404.759 11.08 403.751 11.656C402.743 12.232 401.939 13.072 401.339 14.176C400.739 15.28 400.439 16.576 400.439 18.064C400.439 19.576 400.739 20.896 401.339 22.024C401.939 23.128 402.743 23.98 403.751 24.58C404.759 25.156 405.875 25.444 407.099 25.444C408.323 25.444 409.439 25.156 410.447 24.58C411.479 23.98 412.295 23.128 412.895 22.024C413.495 20.896 413.795 19.588 413.795 18.1Z" fill="url(#paint0_linear_3_2122)"/>
<defs>
<linearGradient id="paint0_linear_3_2122" x1="0" y1="15" x2="496" y2="15" gradientUnits="userSpaceOnUse">
<stop stop-color="#FF3BFF"/>
<stop offset="0.380208" stop-color="#ECBFBF"/>
<stop offset="0.758263" stop-color="#5C24FF"/>
<stop offset="1" stop-color="#D94FD5"/>
</linearGradient>
</defs>
</svg>
